%TF.GenerationSoftware,KiCad,Pcbnew,5.1.6-c6e7f7d~86~ubuntu16.04.1*%
%TF.CreationDate,2020-07-11T20:05:36+01:00*%
%TF.ProjectId,bluepill-pb1,626c7565-7069-46c6-9c2d-7062312e6b69,rev?*%
%TF.SameCoordinates,Original*%
%TF.FileFunction,Soldermask,Bot*%
%TF.FilePolarity,Negative*%
%FSLAX46Y46*%
G04 Gerber Fmt 4.6, Leading zero omitted, Abs format (unit mm)*
G04 Created by KiCad (PCBNEW 5.1.6-c6e7f7d~86~ubuntu16.04.1) date 2020-07-11 20:05:36*
%MOMM*%
%LPD*%
G01*
G04 APERTURE LIST*
%ADD10C,1.624000*%
%ADD11O,3.148000X1.950000*%
%ADD12O,1.800000X1.800000*%
%ADD13R,1.800000X1.800000*%
%ADD14O,1.700000X1.700000*%
%ADD15C,1.700000*%
%ADD16C,1.497000*%
%ADD17R,1.497000X1.497000*%
%ADD18R,1.624000X1.624000*%
G04 APERTURE END LIST*
D10*
%TO.C,U1*%
X140970000Y-109220000D03*
X151130000Y-81280000D03*
X151130000Y-78740000D03*
X151130000Y-76200000D03*
X153670000Y-81280000D03*
X153670000Y-78740000D03*
X153670000Y-76200000D03*
X152400000Y-110490000D03*
X149860000Y-110490000D03*
X147320000Y-110490000D03*
X144780000Y-110490000D03*
X156210000Y-66040000D03*
X156210000Y-68580000D03*
X156210000Y-71120000D03*
X156210000Y-73660000D03*
X156210000Y-76200000D03*
X156210000Y-78740000D03*
X156210000Y-81280000D03*
X156210000Y-83820000D03*
X156210000Y-86360000D03*
X156210000Y-88900000D03*
X156210000Y-91440000D03*
X156210000Y-93980000D03*
X156210000Y-96520000D03*
X156210000Y-99060000D03*
X156210000Y-101600000D03*
X156210000Y-104140000D03*
X156210000Y-106680000D03*
X156210000Y-109220000D03*
X156210000Y-111760000D03*
X156210000Y-114300000D03*
X140970000Y-114300000D03*
X140970000Y-111760000D03*
X140970000Y-106680000D03*
X140970000Y-104140000D03*
X140970000Y-101600000D03*
X140970000Y-99060000D03*
X140970000Y-96520000D03*
X140970000Y-93980000D03*
X140970000Y-91440000D03*
X140970000Y-88900000D03*
X140970000Y-86360000D03*
X140970000Y-83820000D03*
X140970000Y-81280000D03*
X140970000Y-78740000D03*
X140970000Y-76200000D03*
X140970000Y-73660000D03*
X140970000Y-71120000D03*
X140970000Y-68580000D03*
X140970000Y-66040000D03*
%TD*%
D11*
%TO.C,SW2*%
X99060000Y-118030000D03*
X99060000Y-113030000D03*
X111560000Y-118030000D03*
X111560000Y-113030000D03*
%TD*%
D12*
%TO.C,J6*%
X146050000Y-59690000D03*
X143510000Y-59690000D03*
X140970000Y-59690000D03*
X138430000Y-59690000D03*
X135890000Y-59690000D03*
X133350000Y-59690000D03*
D13*
X130810000Y-59690000D03*
%TD*%
D12*
%TO.C,J5*%
X160020000Y-120650000D03*
X157480000Y-120650000D03*
X154940000Y-120650000D03*
X152400000Y-120650000D03*
X149860000Y-120650000D03*
X147320000Y-120650000D03*
X144780000Y-120650000D03*
X142240000Y-120650000D03*
D13*
X139700000Y-120650000D03*
%TD*%
D14*
%TO.C,R14*%
X166370000Y-66040000D03*
D15*
X173990000Y-66040000D03*
%TD*%
D16*
%TO.C,Q1*%
X170180000Y-70358000D03*
X172212000Y-72390000D03*
D17*
X170180000Y-74422000D03*
%TD*%
D12*
%TO.C,J4*%
X110490000Y-66040000D03*
X113030000Y-66040000D03*
X115570000Y-66040000D03*
D13*
X118110000Y-66040000D03*
%TD*%
D12*
%TO.C,J2*%
X173990000Y-59690000D03*
X171450000Y-59690000D03*
X168910000Y-59690000D03*
D13*
X166370000Y-59690000D03*
%TD*%
D12*
%TO.C,J1*%
X177800000Y-101600000D03*
X177800000Y-99060000D03*
X177800000Y-96520000D03*
X177800000Y-93980000D03*
X177800000Y-91440000D03*
X177800000Y-88900000D03*
X177800000Y-86360000D03*
X177800000Y-83820000D03*
X177800000Y-81280000D03*
X177800000Y-78740000D03*
D13*
X177800000Y-76200000D03*
%TD*%
D14*
%TO.C,R13*%
X173990000Y-101600000D03*
D15*
X166370000Y-101600000D03*
%TD*%
D14*
%TO.C,R12*%
X173990000Y-99060000D03*
D15*
X166370000Y-99060000D03*
%TD*%
D14*
%TO.C,R11*%
X173990000Y-96520000D03*
D15*
X166370000Y-96520000D03*
%TD*%
D14*
%TO.C,R10*%
X173990000Y-93980000D03*
D15*
X166370000Y-93980000D03*
%TD*%
D14*
%TO.C,R9*%
X173990000Y-91440000D03*
D15*
X166370000Y-91440000D03*
%TD*%
D14*
%TO.C,R8*%
X173990000Y-88900000D03*
D15*
X166370000Y-88900000D03*
%TD*%
D14*
%TO.C,R7*%
X173990000Y-86360000D03*
D15*
X166370000Y-86360000D03*
%TD*%
D14*
%TO.C,R6*%
X173990000Y-83820000D03*
D15*
X166370000Y-83820000D03*
%TD*%
D14*
%TO.C,R5*%
X173990000Y-81280000D03*
D15*
X166370000Y-81280000D03*
%TD*%
D14*
%TO.C,R4*%
X173990000Y-78740000D03*
D15*
X166370000Y-78740000D03*
%TD*%
D11*
%TO.C,SW3*%
X118110000Y-118030000D03*
X118110000Y-113030000D03*
X130610000Y-118030000D03*
X130610000Y-113030000D03*
%TD*%
%TO.C,SW1*%
X80010000Y-118030000D03*
X80010000Y-113030000D03*
X92510000Y-118030000D03*
X92510000Y-113030000D03*
%TD*%
D14*
%TO.C,R3*%
X128270000Y-104140000D03*
D15*
X120650000Y-104140000D03*
%TD*%
D14*
%TO.C,R2*%
X109220000Y-104140000D03*
D15*
X101600000Y-104140000D03*
%TD*%
D14*
%TO.C,R1*%
X90170000Y-104140000D03*
D15*
X82550000Y-104140000D03*
%TD*%
D12*
%TO.C,J3*%
X110490000Y-69850000D03*
X113030000Y-69850000D03*
X115570000Y-69850000D03*
D13*
X118110000Y-69850000D03*
%TD*%
D10*
%TO.C,A1*%
X95250000Y-81280000D03*
X95250000Y-83820000D03*
X95250000Y-86360000D03*
X95250000Y-88900000D03*
X95250000Y-91440000D03*
D18*
X95250000Y-93980000D03*
%TD*%
M02*
