M48
; DRILL file {KiCad 5.1.6-c6e7f7d~86~ubuntu16.04.1} date Sat Jul 11 20:05:34 2020
; FORMAT={-:-/ absolute / inch / decimal}
; #@! TF.CreationDate,2020-07-11T20:05:34+01:00
; #@! TF.GenerationSoftware,Kicad,Pcbnew,5.1.6-c6e7f7d~86~ubuntu16.04.1
; #@! TF.FileFunction,Plated,1,2,PTH
FMAT,2
INCH
T1C0.0157
T2C0.0300
T3C0.0315
T4C0.0320
T5C0.0394
T6C0.0512
%
G90
G05
T1
X4.05Y-3.2
X4.1Y-3.65
X4.15Y-3.15
X4.15Y-3.5
X4.25Y-3.05
X4.25Y-3.4
X4.55Y-3.9
X4.7Y-3.95
X5.1Y-2.45
X5.1Y-3.7
X5.25Y-3.45
X5.3Y-2.45
X5.3Y-3.2
X5.3Y-4.2
X5.3185Y-3.5
X5.35Y-3.25
X5.35Y-4.0
X5.4Y-3.4
X5.45Y-3.35
X5.65Y-4.15
X5.7Y-3.9
X5.7Y-4.5
X5.75Y-2.6
X5.75Y-3.7
X5.8Y-3.3
X5.8Y-3.9
X5.85Y-3.05
X5.85Y-3.15
X5.85Y-3.5
X5.9Y-3.4
X5.9Y-3.75
X5.95Y-2.8
X6.0Y-4.0
X6.05Y-4.3
X6.05Y-4.55
X6.2Y-4.65
X6.25Y-3.85
X6.3Y-2.6
X6.3Y-4.6
X6.35Y-2.25
X6.35Y-2.95
X6.4Y-3.1
X6.4Y-3.5
X6.4Y-4.0
X6.4Y-4.25
X6.45Y-3.0
X6.45Y-4.7
X6.5Y-4.55
X6.7Y-4.35
X6.75Y-3.1
X6.75Y-3.6
X6.9Y-3.0
T2
X5.55Y-2.6
X5.55Y-2.7
X5.55Y-2.8
X5.55Y-2.9
X5.55Y-3.0
X5.55Y-3.1
X5.55Y-3.2
X5.55Y-3.3
X5.55Y-3.4
X5.55Y-3.5
X5.55Y-3.6
X5.55Y-3.7
X5.55Y-3.8
X5.55Y-3.9
X5.55Y-4.0
X5.55Y-4.1
X5.55Y-4.2
X5.55Y-4.3
X5.55Y-4.4
X5.55Y-4.5
X5.7Y-4.35
X5.8Y-4.35
X5.9Y-4.35
X5.95Y-3.0
X5.95Y-3.1
X5.95Y-3.2
X6.0Y-4.35
X6.05Y-3.0
X6.05Y-3.1
X6.05Y-3.2
X6.15Y-2.6
X6.15Y-2.7
X6.15Y-2.8
X6.15Y-2.9
X6.15Y-3.0
X6.15Y-3.1
X6.15Y-3.2
X6.15Y-3.3
X6.15Y-3.4
X6.15Y-3.5
X6.15Y-3.6
X6.15Y-3.7
X6.15Y-3.8
X6.15Y-3.9
X6.15Y-4.0
X6.15Y-4.1
X6.15Y-4.2
X6.15Y-4.3
X6.15Y-4.4
X6.15Y-4.5
X3.75Y-3.2
X3.75Y-3.3
X3.75Y-3.4
X3.75Y-3.5
X3.75Y-3.6
X3.75Y-3.7
T3
X3.1Y-2.3
X3.1Y-2.4
X3.1Y-2.5
X3.1Y-2.6
X3.1Y-2.7
X3.1Y-2.8
X3.1Y-2.9
X3.1Y-3.0
X3.2Y-2.3
X3.2Y-2.4
X3.2Y-2.5
X3.2Y-2.6
X3.2Y-2.7
X3.2Y-2.8
X3.2Y-2.9
X3.2Y-3.0
X3.3Y-2.3
X3.3Y-2.4
X3.3Y-2.5
X3.3Y-2.6
X3.3Y-2.7
X3.3Y-2.8
X3.3Y-2.9
X3.3Y-3.0
X3.4Y-2.3
X3.4Y-2.4
X3.4Y-2.5
X3.4Y-2.6
X3.4Y-2.7
X3.4Y-2.8
X3.4Y-2.9
X3.4Y-3.0
X3.5Y-2.3
X3.5Y-2.4
X3.5Y-2.5
X3.5Y-2.6
X3.5Y-2.7
X3.5Y-2.8
X3.5Y-2.9
X3.5Y-3.0
X3.6Y-2.3
X3.6Y-2.4
X3.6Y-2.5
X3.6Y-2.6
X3.6Y-2.7
X3.6Y-2.8
X3.6Y-2.9
X3.6Y-3.0
X3.7Y-2.3
X3.7Y-2.4
X3.7Y-2.5
X3.7Y-2.6
X3.7Y-2.7
X3.7Y-2.8
X3.7Y-2.9
X3.7Y-3.0
X3.8Y-2.3
X3.8Y-2.4
X3.8Y-2.5
X3.8Y-2.6
X3.8Y-2.7
X3.8Y-2.8
X3.8Y-2.9
X3.8Y-3.0
X3.9Y-2.3
X3.9Y-2.4
X3.9Y-2.5
X3.9Y-2.6
X3.9Y-2.7
X3.9Y-2.8
X4.0Y-2.3
X4.0Y-2.4
X4.0Y-2.5
X4.0Y-2.6
X4.0Y-2.7
X4.1Y-2.3
X4.1Y-2.4
X4.1Y-2.5
X4.1Y-2.6
X4.1Y-2.7
X4.2Y-2.3
X4.2Y-2.4
X4.3Y-2.3
X4.3Y-2.4
X4.4Y-2.3
X4.4Y-2.4
X4.5Y-2.3
X4.5Y-2.4
X4.6Y-2.3
X4.6Y-2.4
X4.7Y-2.3
X4.7Y-2.4
X4.8Y-2.3
X4.8Y-2.4
X4.8Y-2.5
X4.8Y-2.6
X4.8Y-2.7
X4.8Y-2.8
X4.8Y-2.9
X4.9Y-2.3
X4.9Y-2.4
X4.9Y-2.5
X4.9Y-2.6
X4.9Y-2.7
X4.9Y-2.8
X4.9Y-2.9
X5.0Y-2.3
X5.0Y-2.4
X5.0Y-2.5
X5.0Y-2.6
X5.0Y-2.7
X5.0Y-2.8
X5.0Y-2.9
X6.55Y-3.9
X6.85Y-3.9
X6.55Y-3.5
X6.85Y-3.5
X6.55Y-3.6
X6.85Y-3.6
X6.55Y-3.7
X6.85Y-3.7
X4.75Y-4.1
X5.05Y-4.1
X6.55Y-3.3
X6.85Y-3.3
X6.55Y-3.4
X6.85Y-3.4
X6.55Y-3.1
X6.85Y-3.1
X3.25Y-4.1
X3.55Y-4.1
X6.55Y-3.2
X6.85Y-3.2
X6.55Y-4.0
X6.85Y-4.0
X4.0Y-4.1
X4.3Y-4.1
X6.55Y-3.8
X6.85Y-3.8
X6.55Y-2.6
X6.85Y-2.6
T4
X6.7Y-2.77
X6.7Y-2.93
X6.78Y-2.85
T5
X4.35Y-2.75
X4.45Y-2.75
X4.55Y-2.75
X4.65Y-2.75
X5.5Y-4.75
X5.6Y-4.75
X5.7Y-4.75
X5.8Y-4.75
X5.9Y-4.75
X6.0Y-4.75
X6.1Y-4.75
X6.2Y-4.75
X6.3Y-4.75
X5.15Y-2.35
X5.25Y-2.35
X5.35Y-2.35
X5.45Y-2.35
X5.55Y-2.35
X5.65Y-2.35
X5.75Y-2.35
X6.55Y-2.35
X6.65Y-2.35
X6.75Y-2.35
X6.85Y-2.35
X7.0Y-3.0
X7.0Y-3.1
X7.0Y-3.2
X7.0Y-3.3
X7.0Y-3.4
X7.0Y-3.5
X7.0Y-3.6
X7.0Y-3.7
X7.0Y-3.8
X7.0Y-3.9
X7.0Y-4.0
X4.35Y-2.6
X4.45Y-2.6
X4.55Y-2.6
X4.65Y-2.6
T6
X3.15Y-4.45
X3.15Y-4.6469
X3.6421Y-4.45
X3.6421Y-4.6469
X3.9Y-4.45
X3.9Y-4.6469
X4.3921Y-4.45
X4.3921Y-4.6469
X4.65Y-4.45
X4.65Y-4.6469
X5.1421Y-4.45
X5.1421Y-4.6469
T0
M30
