%TF.GenerationSoftware,KiCad,Pcbnew,5.1.6-c6e7f7d~86~ubuntu16.04.1*%
%TF.CreationDate,2020-07-11T20:05:59+01:00*%
%TF.ProjectId,bluepill-pb1,626c7565-7069-46c6-9c2d-7062312e6b69,rev?*%
%TF.SameCoordinates,Original*%
%TF.FileFunction,Copper,L2,Bot*%
%TF.FilePolarity,Positive*%
%FSLAX46Y46*%
G04 Gerber Fmt 4.6, Leading zero omitted, Abs format (unit mm)*
G04 Created by KiCad (PCBNEW 5.1.6-c6e7f7d~86~ubuntu16.04.1) date 2020-07-11 20:05:59*
%MOMM*%
%LPD*%
G01*
G04 APERTURE LIST*
%TA.AperFunction,ComponentPad*%
%ADD10C,1.524000*%
%TD*%
%TA.AperFunction,ComponentPad*%
%ADD11O,3.048000X1.850000*%
%TD*%
%TA.AperFunction,ComponentPad*%
%ADD12O,1.700000X1.700000*%
%TD*%
%TA.AperFunction,ComponentPad*%
%ADD13R,1.700000X1.700000*%
%TD*%
%TA.AperFunction,ComponentPad*%
%ADD14O,1.600000X1.600000*%
%TD*%
%TA.AperFunction,ComponentPad*%
%ADD15C,1.600000*%
%TD*%
%TA.AperFunction,ComponentPad*%
%ADD16C,1.397000*%
%TD*%
%TA.AperFunction,ComponentPad*%
%ADD17R,1.397000X1.397000*%
%TD*%
%TA.AperFunction,ComponentPad*%
%ADD18R,1.524000X1.524000*%
%TD*%
%TA.AperFunction,ViaPad*%
%ADD19C,1.400000*%
%TD*%
%TA.AperFunction,ViaPad*%
%ADD20C,0.800000*%
%TD*%
%TA.AperFunction,Conductor*%
%ADD21C,0.400000*%
%TD*%
G04 APERTURE END LIST*
D10*
%TO.P,U1,5V*%
%TO.N,Net-(J6-Pad1)*%
X140970000Y-109220000D03*
%TO.P,U1,3V3*%
%TO.N,+3V3*%
X151130000Y-81280000D03*
%TO.P,U1,PB2*%
%TO.N,N/C*%
X151130000Y-78740000D03*
%TO.P,U1,G*%
%TO.N,GND*%
X151130000Y-76200000D03*
%TO.P,U1,3V3*%
%TO.N,+3V3*%
X153670000Y-81280000D03*
%TO.P,U1,BOOT*%
%TO.N,N/C*%
X153670000Y-78740000D03*
%TO.P,U1,G*%
%TO.N,GND*%
X153670000Y-76200000D03*
X152400000Y-110490000D03*
%TO.P,U1,PA14*%
%TO.N,N/C*%
X149860000Y-110490000D03*
%TO.P,U1,PA13*%
X147320000Y-110490000D03*
%TO.P,U1,3V3*%
%TO.N,+3V3*%
X144780000Y-110490000D03*
%TO.P,U1,G*%
%TO.N,GND*%
X156210000Y-66040000D03*
X156210000Y-68580000D03*
%TO.P,U1,3V3*%
%TO.N,+3V3*%
X156210000Y-71120000D03*
%TO.P,U1,NRST*%
%TO.N,N/C*%
X156210000Y-73660000D03*
%TO.P,U1,PB11*%
%TO.N,Net-(Q1-Pad1)*%
X156210000Y-76200000D03*
%TO.P,U1,PB10*%
%TO.N,Net-(R8-Pad1)*%
X156210000Y-78740000D03*
%TO.P,U1,PB1*%
%TO.N,Net-(J5-Pad7)*%
X156210000Y-81280000D03*
%TO.P,U1,PB0*%
%TO.N,Net-(J5-Pad6)*%
X156210000Y-83820000D03*
%TO.P,U1,PA7*%
%TO.N,Net-(A1-Pad4)*%
X156210000Y-86360000D03*
%TO.P,U1,PA6*%
%TO.N,Net-(A1-Pad3)*%
X156210000Y-88900000D03*
%TO.P,U1,PA5*%
%TO.N,Net-(A1-Pad5)*%
X156210000Y-91440000D03*
%TO.P,U1,PA4*%
%TO.N,Net-(A1-Pad6)*%
X156210000Y-93980000D03*
%TO.P,U1,PA3*%
%TO.N,Net-(J5-Pad5)*%
X156210000Y-96520000D03*
%TO.P,U1,PA2*%
%TO.N,Net-(J5-Pad4)*%
X156210000Y-99060000D03*
%TO.P,U1,PA1*%
%TO.N,Net-(R2-Pad2)*%
X156210000Y-101600000D03*
%TO.P,U1,PA0*%
%TO.N,Net-(R3-Pad2)*%
X156210000Y-104140000D03*
%TO.P,U1,PC15*%
%TO.N,Net-(R1-Pad2)*%
X156210000Y-106680000D03*
%TO.P,U1,PC14*%
%TO.N,Net-(J5-Pad3)*%
X156210000Y-109220000D03*
%TO.P,U1,PC13*%
%TO.N,Net-(J5-Pad2)*%
X156210000Y-111760000D03*
%TO.P,U1,VBAT*%
%TO.N,N/C*%
X156210000Y-114300000D03*
%TO.P,U1,3V3*%
%TO.N,+3V3*%
X140970000Y-114300000D03*
%TO.P,U1,G*%
%TO.N,GND*%
X140970000Y-111760000D03*
%TO.P,U1,PB9*%
%TO.N,Net-(R7-Pad1)*%
X140970000Y-106680000D03*
%TO.P,U1,PB8*%
%TO.N,Net-(R6-Pad1)*%
X140970000Y-104140000D03*
%TO.P,U1,PB7*%
%TO.N,Net-(J3-Pad1)*%
X140970000Y-101600000D03*
%TO.P,U1,PB6*%
%TO.N,Net-(J3-Pad2)*%
X140970000Y-99060000D03*
%TO.P,U1,PB5*%
%TO.N,Net-(J5-Pad8)*%
X140970000Y-96520000D03*
%TO.P,U1,PB4*%
%TO.N,Net-(J6-Pad2)*%
X140970000Y-93980000D03*
%TO.P,U1,PB3*%
%TO.N,Net-(Q1-Pad2)*%
X140970000Y-91440000D03*
%TO.P,U1,PA15*%
%TO.N,Net-(J6-Pad3)*%
X140970000Y-88900000D03*
%TO.P,U1,PA12*%
%TO.N,Net-(J6-Pad4)*%
X140970000Y-86360000D03*
%TO.P,U1,PA11*%
%TO.N,Net-(J6-Pad5)*%
X140970000Y-83820000D03*
%TO.P,U1,PA10*%
%TO.N,Net-(J2-Pad3)*%
X140970000Y-81280000D03*
%TO.P,U1,PA9*%
%TO.N,Net-(J2-Pad2)*%
X140970000Y-78740000D03*
%TO.P,U1,PA8*%
%TO.N,Net-(J6-Pad6)*%
X140970000Y-76200000D03*
%TO.P,U1,PB15*%
%TO.N,Net-(R13-Pad1)*%
X140970000Y-73660000D03*
%TO.P,U1,PB14*%
%TO.N,Net-(R12-Pad1)*%
X140970000Y-71120000D03*
%TO.P,U1,PB13*%
%TO.N,Net-(R11-Pad1)*%
X140970000Y-68580000D03*
%TO.P,U1,PB12*%
%TO.N,Net-(R10-Pad1)*%
X140970000Y-66040000D03*
%TD*%
D11*
%TO.P,SW2,2*%
%TO.N,Net-(R2-Pad2)*%
X99060000Y-118030000D03*
%TO.P,SW2,1*%
%TO.N,GND*%
X99060000Y-113030000D03*
%TO.P,SW2,2*%
%TO.N,Net-(R2-Pad2)*%
X111560000Y-118030000D03*
%TO.P,SW2,1*%
%TO.N,GND*%
X111560000Y-113030000D03*
%TD*%
D12*
%TO.P,J6,7*%
%TO.N,GND*%
X146050000Y-59690000D03*
%TO.P,J6,6*%
%TO.N,Net-(J6-Pad6)*%
X143510000Y-59690000D03*
%TO.P,J6,5*%
%TO.N,Net-(J6-Pad5)*%
X140970000Y-59690000D03*
%TO.P,J6,4*%
%TO.N,Net-(J6-Pad4)*%
X138430000Y-59690000D03*
%TO.P,J6,3*%
%TO.N,Net-(J6-Pad3)*%
X135890000Y-59690000D03*
%TO.P,J6,2*%
%TO.N,Net-(J6-Pad2)*%
X133350000Y-59690000D03*
D13*
%TO.P,J6,1*%
%TO.N,Net-(J6-Pad1)*%
X130810000Y-59690000D03*
%TD*%
D12*
%TO.P,J5,9*%
%TO.N,GND*%
X160020000Y-120650000D03*
%TO.P,J5,8*%
%TO.N,Net-(J5-Pad8)*%
X157480000Y-120650000D03*
%TO.P,J5,7*%
%TO.N,Net-(J5-Pad7)*%
X154940000Y-120650000D03*
%TO.P,J5,6*%
%TO.N,Net-(J5-Pad6)*%
X152400000Y-120650000D03*
%TO.P,J5,5*%
%TO.N,Net-(J5-Pad5)*%
X149860000Y-120650000D03*
%TO.P,J5,4*%
%TO.N,Net-(J5-Pad4)*%
X147320000Y-120650000D03*
%TO.P,J5,3*%
%TO.N,Net-(J5-Pad3)*%
X144780000Y-120650000D03*
%TO.P,J5,2*%
%TO.N,Net-(J5-Pad2)*%
X142240000Y-120650000D03*
D13*
%TO.P,J5,1*%
%TO.N,+3V3*%
X139700000Y-120650000D03*
%TD*%
D14*
%TO.P,R14,2*%
%TO.N,Net-(Q1-Pad1)*%
X166370000Y-66040000D03*
D15*
%TO.P,R14,1*%
%TO.N,+3V3*%
X173990000Y-66040000D03*
%TD*%
D16*
%TO.P,Q1,1*%
%TO.N,Net-(Q1-Pad1)*%
X170180000Y-70358000D03*
%TO.P,Q1,2*%
%TO.N,Net-(Q1-Pad2)*%
X172212000Y-72390000D03*
D17*
%TO.P,Q1,3*%
%TO.N,GND*%
X170180000Y-74422000D03*
%TD*%
D12*
%TO.P,J4,4*%
%TO.N,+3V3*%
X110490000Y-66040000D03*
%TO.P,J4,3*%
%TO.N,GND*%
X113030000Y-66040000D03*
%TO.P,J4,2*%
%TO.N,Net-(J3-Pad2)*%
X115570000Y-66040000D03*
D13*
%TO.P,J4,1*%
%TO.N,Net-(J3-Pad1)*%
X118110000Y-66040000D03*
%TD*%
D12*
%TO.P,J2,4*%
%TO.N,+3V3*%
X173990000Y-59690000D03*
%TO.P,J2,3*%
%TO.N,Net-(J2-Pad3)*%
X171450000Y-59690000D03*
%TO.P,J2,2*%
%TO.N,Net-(J2-Pad2)*%
X168910000Y-59690000D03*
D13*
%TO.P,J2,1*%
%TO.N,GND*%
X166370000Y-59690000D03*
%TD*%
D12*
%TO.P,J1,11*%
%TO.N,Net-(J1-Pad11)*%
X177800000Y-101600000D03*
%TO.P,J1,10*%
%TO.N,Net-(J1-Pad10)*%
X177800000Y-99060000D03*
%TO.P,J1,9*%
%TO.N,Net-(J1-Pad9)*%
X177800000Y-96520000D03*
%TO.P,J1,8*%
%TO.N,Net-(J1-Pad8)*%
X177800000Y-93980000D03*
%TO.P,J1,7*%
%TO.N,Net-(J1-Pad7)*%
X177800000Y-91440000D03*
%TO.P,J1,6*%
%TO.N,Net-(J1-Pad6)*%
X177800000Y-88900000D03*
%TO.P,J1,5*%
%TO.N,Net-(J1-Pad5)*%
X177800000Y-86360000D03*
%TO.P,J1,4*%
%TO.N,Net-(J1-Pad4)*%
X177800000Y-83820000D03*
%TO.P,J1,3*%
%TO.N,Net-(J1-Pad3)*%
X177800000Y-81280000D03*
%TO.P,J1,2*%
%TO.N,Net-(J1-Pad2)*%
X177800000Y-78740000D03*
D13*
%TO.P,J1,1*%
%TO.N,N/C*%
X177800000Y-76200000D03*
%TD*%
D14*
%TO.P,R13,2*%
%TO.N,Net-(J1-Pad11)*%
X173990000Y-101600000D03*
D15*
%TO.P,R13,1*%
%TO.N,Net-(R13-Pad1)*%
X166370000Y-101600000D03*
%TD*%
D14*
%TO.P,R12,2*%
%TO.N,Net-(J1-Pad10)*%
X173990000Y-99060000D03*
D15*
%TO.P,R12,1*%
%TO.N,Net-(R12-Pad1)*%
X166370000Y-99060000D03*
%TD*%
D14*
%TO.P,R11,2*%
%TO.N,Net-(J1-Pad9)*%
X173990000Y-96520000D03*
D15*
%TO.P,R11,1*%
%TO.N,Net-(R11-Pad1)*%
X166370000Y-96520000D03*
%TD*%
D14*
%TO.P,R10,2*%
%TO.N,Net-(J1-Pad8)*%
X173990000Y-93980000D03*
D15*
%TO.P,R10,1*%
%TO.N,Net-(R10-Pad1)*%
X166370000Y-93980000D03*
%TD*%
D14*
%TO.P,R9,2*%
%TO.N,Net-(J1-Pad7)*%
X173990000Y-91440000D03*
D15*
%TO.P,R9,1*%
%TO.N,Net-(Q1-Pad2)*%
X166370000Y-91440000D03*
%TD*%
D14*
%TO.P,R8,2*%
%TO.N,Net-(J1-Pad6)*%
X173990000Y-88900000D03*
D15*
%TO.P,R8,1*%
%TO.N,Net-(R8-Pad1)*%
X166370000Y-88900000D03*
%TD*%
D14*
%TO.P,R7,2*%
%TO.N,Net-(J1-Pad5)*%
X173990000Y-86360000D03*
D15*
%TO.P,R7,1*%
%TO.N,Net-(R7-Pad1)*%
X166370000Y-86360000D03*
%TD*%
D14*
%TO.P,R6,2*%
%TO.N,Net-(J1-Pad4)*%
X173990000Y-83820000D03*
D15*
%TO.P,R6,1*%
%TO.N,Net-(R6-Pad1)*%
X166370000Y-83820000D03*
%TD*%
D14*
%TO.P,R5,2*%
%TO.N,Net-(J1-Pad3)*%
X173990000Y-81280000D03*
D15*
%TO.P,R5,1*%
%TO.N,GND*%
X166370000Y-81280000D03*
%TD*%
D14*
%TO.P,R4,2*%
%TO.N,Net-(J1-Pad2)*%
X173990000Y-78740000D03*
D15*
%TO.P,R4,1*%
%TO.N,Net-(JP1-Pad1)*%
X166370000Y-78740000D03*
%TD*%
D11*
%TO.P,SW3,2*%
%TO.N,Net-(R3-Pad2)*%
X118110000Y-118030000D03*
%TO.P,SW3,1*%
%TO.N,GND*%
X118110000Y-113030000D03*
%TO.P,SW3,2*%
%TO.N,Net-(R3-Pad2)*%
X130610000Y-118030000D03*
%TO.P,SW3,1*%
%TO.N,GND*%
X130610000Y-113030000D03*
%TD*%
%TO.P,SW1,2*%
%TO.N,Net-(R1-Pad2)*%
X80010000Y-118030000D03*
%TO.P,SW1,1*%
%TO.N,GND*%
X80010000Y-113030000D03*
%TO.P,SW1,2*%
%TO.N,Net-(R1-Pad2)*%
X92510000Y-118030000D03*
%TO.P,SW1,1*%
%TO.N,GND*%
X92510000Y-113030000D03*
%TD*%
D14*
%TO.P,R3,2*%
%TO.N,Net-(R3-Pad2)*%
X128270000Y-104140000D03*
D15*
%TO.P,R3,1*%
%TO.N,+3V3*%
X120650000Y-104140000D03*
%TD*%
D14*
%TO.P,R2,2*%
%TO.N,Net-(R2-Pad2)*%
X109220000Y-104140000D03*
D15*
%TO.P,R2,1*%
%TO.N,+3V3*%
X101600000Y-104140000D03*
%TD*%
D14*
%TO.P,R1,2*%
%TO.N,Net-(R1-Pad2)*%
X90170000Y-104140000D03*
D15*
%TO.P,R1,1*%
%TO.N,+3V3*%
X82550000Y-104140000D03*
%TD*%
D12*
%TO.P,J3,4*%
%TO.N,GND*%
X110490000Y-69850000D03*
%TO.P,J3,3*%
%TO.N,+3V3*%
X113030000Y-69850000D03*
%TO.P,J3,2*%
%TO.N,Net-(J3-Pad2)*%
X115570000Y-69850000D03*
D13*
%TO.P,J3,1*%
%TO.N,Net-(J3-Pad1)*%
X118110000Y-69850000D03*
%TD*%
D10*
%TO.P,A1,6*%
%TO.N,Net-(A1-Pad6)*%
X95250000Y-81280000D03*
%TO.P,A1,5*%
%TO.N,Net-(A1-Pad5)*%
X95250000Y-83820000D03*
%TO.P,A1,4*%
%TO.N,Net-(A1-Pad4)*%
X95250000Y-86360000D03*
%TO.P,A1,3*%
%TO.N,Net-(A1-Pad3)*%
X95250000Y-88900000D03*
%TO.P,A1,2*%
%TO.N,+3V3*%
X95250000Y-91440000D03*
D18*
%TO.P,A1,1*%
%TO.N,GND*%
X95250000Y-93980000D03*
%TD*%
D19*
%TO.N,*%
X78740000Y-58420000D03*
X78740000Y-60960000D03*
X78740000Y-63500000D03*
X78740000Y-66040000D03*
X78740000Y-68580000D03*
X78740000Y-71120000D03*
X78740000Y-73660000D03*
X78740000Y-76200000D03*
X81280000Y-76200000D03*
X81280000Y-73660000D03*
X81280000Y-71120000D03*
X81280000Y-68580000D03*
X81280000Y-66040000D03*
X81280000Y-63500000D03*
X81280000Y-60960000D03*
X81280000Y-58420000D03*
X83820000Y-58420000D03*
X83820000Y-60960000D03*
X83820000Y-63500000D03*
X83820000Y-66040000D03*
X83820000Y-68580000D03*
X83820000Y-71120000D03*
X83820000Y-73660000D03*
X83820000Y-76200000D03*
X86360000Y-76200000D03*
X86360000Y-73660000D03*
X86360000Y-71120000D03*
X86360000Y-68580000D03*
X86360000Y-66040000D03*
X86360000Y-63500000D03*
X86360000Y-60960000D03*
X86360000Y-58420000D03*
X88900000Y-58420000D03*
X88900000Y-60960000D03*
X88900000Y-63500000D03*
X88900000Y-66040000D03*
X88900000Y-68580000D03*
X88900000Y-71120000D03*
X88900000Y-73660000D03*
X88900000Y-76200000D03*
X91440000Y-76200000D03*
X91440000Y-73660000D03*
X91440000Y-71120000D03*
X91440000Y-68580000D03*
X91440000Y-66040000D03*
X91440000Y-63500000D03*
X91440000Y-60960000D03*
X91440000Y-58420000D03*
X93980000Y-58420000D03*
X93980000Y-60960000D03*
X93980000Y-63500000D03*
X93980000Y-66040000D03*
X93980000Y-68580000D03*
X93980000Y-71120000D03*
X93980000Y-73660000D03*
X93980000Y-76200000D03*
X96520000Y-76200000D03*
X96520000Y-73660000D03*
X96520000Y-71120000D03*
X96520000Y-68580000D03*
X96520000Y-66040000D03*
X96520000Y-63500000D03*
X96520000Y-60960000D03*
X96520000Y-58420000D03*
X99060000Y-58420000D03*
X99060000Y-60960000D03*
X99060000Y-63500000D03*
X99060000Y-66040000D03*
X99060000Y-68580000D03*
X99060000Y-71120000D03*
X101600000Y-58420000D03*
X101600000Y-60960000D03*
X104140000Y-60960000D03*
X104140000Y-58420000D03*
X106680000Y-58420000D03*
X106680000Y-60960000D03*
X109220000Y-60960000D03*
X109220000Y-58420000D03*
X111760000Y-58420000D03*
X111760000Y-60960000D03*
X114300000Y-60960000D03*
X114300000Y-58420000D03*
X116840000Y-58420000D03*
X116840000Y-60960000D03*
X119380000Y-60960000D03*
X119380000Y-58420000D03*
X121920000Y-58420000D03*
X121920000Y-60960000D03*
X124460000Y-60960000D03*
X124460000Y-58420000D03*
X101600000Y-63500000D03*
X101600000Y-66040000D03*
X101600000Y-68580000D03*
X104140000Y-68580000D03*
X104140000Y-66040000D03*
X104140000Y-63500000D03*
X124460000Y-63500000D03*
X127000000Y-63500000D03*
X121920000Y-63500000D03*
X121920000Y-66040000D03*
X124460000Y-66040000D03*
X127000000Y-66040000D03*
X127000000Y-60960000D03*
X127000000Y-58420000D03*
X121920000Y-68580000D03*
X124460000Y-68580000D03*
X127000000Y-68580000D03*
X127000000Y-71120000D03*
X121920000Y-71120000D03*
X124460000Y-71120000D03*
X121920000Y-73660000D03*
X124460000Y-73660000D03*
X127000000Y-73660000D03*
D20*
%TO.N,Net-(A1-Pad6)*%
X104140000Y-92710000D03*
X102870000Y-81280000D03*
%TO.N,Net-(A1-Pad4)*%
X149860000Y-86360000D03*
X148590000Y-77470000D03*
X107950000Y-77470000D03*
X107950000Y-86360000D03*
%TO.N,Net-(A1-Pad3)*%
X148590000Y-88900000D03*
X105410000Y-80010000D03*
X105410000Y-88900000D03*
X148590000Y-80010000D03*
%TO.N,Net-(J2-Pad3)*%
X134620000Y-62230000D03*
X134620000Y-81280000D03*
%TO.N,Net-(J2-Pad2)*%
X175260000Y-76200000D03*
%TO.N,+3V3*%
X135890000Y-101600000D03*
X135890000Y-82550000D03*
%TO.N,GND*%
X170180000Y-110490000D03*
%TO.N,Net-(R1-Pad2)*%
X160020000Y-116840000D03*
%TO.N,Net-(R2-Pad2)*%
X162560000Y-107950000D03*
X162560000Y-101600000D03*
%TO.N,Net-(J3-Pad2)*%
X115570000Y-99060000D03*
%TO.N,Net-(J3-Pad1)*%
X119380000Y-100330000D03*
%TO.N,Net-(R6-Pad1)*%
X138430000Y-85090000D03*
%TO.N,Net-(R7-Pad1)*%
X133350000Y-87630000D03*
X134620000Y-106680000D03*
%TO.N,Net-(R8-Pad1)*%
X162560000Y-78740000D03*
X162560000Y-88900000D03*
%TO.N,Net-(R10-Pad1)*%
X146050000Y-66040000D03*
X146050000Y-93980000D03*
%TO.N,Net-(R11-Pad1)*%
X144780000Y-99060000D03*
%TO.N,Net-(R12-Pad1)*%
X152400000Y-101600000D03*
X151130000Y-71120000D03*
%TO.N,Net-(R13-Pad1)*%
X143510000Y-105410000D03*
%TO.N,Net-(J5-Pad8)*%
X158750000Y-97790000D03*
%TO.N,Net-(J5-Pad6)*%
X163830000Y-119380000D03*
%TO.N,Net-(J5-Pad5)*%
X149860000Y-95250000D03*
%TO.N,Net-(J5-Pad4)*%
X147320000Y-99060000D03*
%TO.N,Net-(J5-Pad3)*%
X157480000Y-118110000D03*
%TO.N,Net-(J5-Pad2)*%
X144780000Y-114300000D03*
%TO.N,Net-(J6-Pad5)*%
X147320000Y-83820000D03*
%TO.N,Net-(J6-Pad4)*%
X137160000Y-86360000D03*
%TO.N,Net-(J6-Pad3)*%
X135090000Y-88900000D03*
%TO.N,Net-(J6-Pad2)*%
X129540000Y-93980000D03*
X129540000Y-62230000D03*
%TO.N,Net-(J6-Pad1)*%
X153670000Y-109220000D03*
X153670000Y-115570000D03*
X165100000Y-115570000D03*
X163830000Y-76200000D03*
X161290000Y-57150000D03*
X161290000Y-74930000D03*
%TO.N,Net-(Q1-Pad1)*%
X160020000Y-66040000D03*
%TO.N,Net-(Q1-Pad2)*%
X171450000Y-78740000D03*
X171450000Y-91440000D03*
%TD*%
D21*
%TO.N,Net-(A1-Pad6)*%
X104140000Y-82550000D02*
X102870000Y-81280000D01*
X104140000Y-92710000D02*
X104140000Y-82550000D01*
%TO.N,Net-(A1-Pad4)*%
X149860000Y-78740000D02*
X148590000Y-77470000D01*
X149860000Y-86360000D02*
X149860000Y-78740000D01*
X107950000Y-77470000D02*
X107950000Y-86360000D01*
%TO.N,Net-(A1-Pad3)*%
X148590000Y-88900000D02*
X148590000Y-81280000D01*
X105410000Y-80010000D02*
X105410000Y-88900000D01*
X148590000Y-81280000D02*
X148590000Y-80010000D01*
%TO.N,Net-(J1-Pad2)*%
X177800000Y-78740000D02*
X173990000Y-78740000D01*
%TO.N,Net-(J1-Pad7)*%
X173990000Y-91440000D02*
X177800000Y-91440000D01*
%TO.N,Net-(J1-Pad6)*%
X177800000Y-88900000D02*
X173990000Y-88900000D01*
%TO.N,Net-(J1-Pad5)*%
X173990000Y-86360000D02*
X177800000Y-86360000D01*
%TO.N,Net-(J1-Pad4)*%
X177800000Y-83820000D02*
X173990000Y-83820000D01*
%TO.N,Net-(J2-Pad3)*%
X134620000Y-62230000D02*
X134620000Y-80010000D01*
X134620000Y-81280000D02*
X134620000Y-80010000D01*
%TO.N,Net-(J2-Pad2)*%
X175260000Y-76200000D02*
X176530000Y-74930000D01*
X176530000Y-74930000D02*
X176530000Y-58420000D01*
X176530000Y-58420000D02*
X175260000Y-57150000D01*
X175260000Y-57150000D02*
X170180000Y-57150000D01*
X168910000Y-58420000D02*
X168910000Y-59690000D01*
X170180000Y-57150000D02*
X168910000Y-58420000D01*
%TO.N,Net-(J1-Pad11)*%
X173990000Y-101600000D02*
X177800000Y-101600000D01*
%TO.N,Net-(J1-Pad10)*%
X177800000Y-99060000D02*
X173990000Y-99060000D01*
%TO.N,Net-(J1-Pad9)*%
X173990000Y-96520000D02*
X177800000Y-96520000D01*
%TO.N,Net-(J1-Pad8)*%
X177800000Y-93980000D02*
X173990000Y-93980000D01*
%TO.N,+3V3*%
X173990000Y-59690000D02*
X173990000Y-66040000D01*
X95250000Y-91440000D02*
X99060000Y-91440000D01*
X99060000Y-91440000D02*
X100330000Y-92710000D01*
X100330000Y-102870000D02*
X101600000Y-104140000D01*
X100330000Y-92710000D02*
X100330000Y-102870000D01*
X140970000Y-114300000D02*
X139700000Y-115570000D01*
X139700000Y-115570000D02*
X139700000Y-120650000D01*
X135890000Y-101600000D02*
X135890000Y-113030000D01*
X137160000Y-114300000D02*
X140970000Y-114300000D01*
X135890000Y-113030000D02*
X137160000Y-114300000D01*
X110490000Y-67310000D02*
X113030000Y-69850000D01*
X110490000Y-66040000D02*
X110490000Y-67310000D01*
X99060000Y-91440000D02*
X99060000Y-76200000D01*
X99060000Y-76200000D02*
X101600000Y-73660000D01*
X101600000Y-73660000D02*
X111760000Y-73660000D01*
X113030000Y-72390000D02*
X113030000Y-69850000D01*
X111760000Y-73660000D02*
X113030000Y-72390000D01*
X135890000Y-82550000D02*
X135890000Y-101600000D01*
%TO.N,GND*%
X157480000Y-59690000D02*
X157480000Y-63500000D01*
X156210000Y-64770000D02*
X156210000Y-66040000D01*
X157480000Y-63500000D02*
X156210000Y-64770000D01*
X156210000Y-68580000D02*
X156210000Y-66040000D01*
X95250000Y-110290000D02*
X92510000Y-113030000D01*
X95250000Y-93980000D02*
X95250000Y-110290000D01*
X113030000Y-66040000D02*
X113030000Y-64770000D01*
X113030000Y-64770000D02*
X111760000Y-63500000D01*
X111760000Y-63500000D02*
X107950000Y-63500000D01*
X107950000Y-63500000D02*
X106680000Y-64770000D01*
X106680000Y-64770000D02*
X106680000Y-69850000D01*
X106680000Y-69850000D02*
X107950000Y-71120000D01*
X107950000Y-71120000D02*
X110490000Y-71120000D01*
X110490000Y-71120000D02*
X110490000Y-69850000D01*
X170180000Y-74422000D02*
X170180000Y-110490000D01*
X170180000Y-110490000D02*
X170180000Y-119380000D01*
X168910000Y-120650000D02*
X160020000Y-120650000D01*
X170180000Y-119380000D02*
X168910000Y-120650000D01*
X166370000Y-81280000D02*
X170180000Y-81280000D01*
X156210000Y-68580000D02*
X154940000Y-68580000D01*
X153670000Y-69850000D02*
X153670000Y-76200000D01*
X154940000Y-68580000D02*
X153670000Y-69850000D01*
X166370000Y-62230000D02*
X166370000Y-59690000D01*
X170180000Y-74422000D02*
X173228000Y-74422000D01*
X173228000Y-74422000D02*
X173990000Y-73660000D01*
X173990000Y-73660000D02*
X173990000Y-69850000D01*
X173990000Y-69850000D02*
X166370000Y-62230000D01*
X97790000Y-74930000D02*
X101600000Y-71120000D01*
X97790000Y-78740000D02*
X97790000Y-74930000D01*
X92710000Y-78740000D02*
X97790000Y-78740000D01*
X95250000Y-93980000D02*
X92710000Y-93980000D01*
X91440000Y-80010000D02*
X92710000Y-78740000D01*
X101600000Y-71120000D02*
X107950000Y-71120000D01*
X92710000Y-93980000D02*
X91440000Y-92710000D01*
X91440000Y-92710000D02*
X91440000Y-80010000D01*
%TO.N,Net-(R1-Pad2)*%
X90170000Y-104140000D02*
X90170000Y-109220000D01*
X90170000Y-109220000D02*
X88900000Y-110490000D01*
X88900000Y-110490000D02*
X88900000Y-116840000D01*
X90090000Y-118030000D02*
X92510000Y-118030000D01*
X88900000Y-116840000D02*
X90090000Y-118030000D01*
X160020000Y-116840000D02*
X160020000Y-107950000D01*
X158750000Y-106680000D02*
X156210000Y-106680000D01*
X160020000Y-107950000D02*
X158750000Y-106680000D01*
%TO.N,Net-(R2-Pad2)*%
X109220000Y-104140000D02*
X109220000Y-109220000D01*
X109220000Y-109220000D02*
X107950000Y-110490000D01*
X107950000Y-110490000D02*
X107950000Y-116840000D01*
X109140000Y-118030000D02*
X111560000Y-118030000D01*
X107950000Y-116840000D02*
X109140000Y-118030000D01*
X162560000Y-107950000D02*
X162560000Y-101600000D01*
%TO.N,Net-(R3-Pad2)*%
X128270000Y-104140000D02*
X128270000Y-109220000D01*
X128270000Y-109220000D02*
X127000000Y-110490000D01*
X127000000Y-110490000D02*
X127000000Y-116840000D01*
X128190000Y-118030000D02*
X130610000Y-118030000D01*
X127000000Y-116840000D02*
X128190000Y-118030000D01*
%TO.N,Net-(J3-Pad2)*%
X115570000Y-66040000D02*
X115570000Y-69850000D01*
X115570000Y-99060000D02*
X115570000Y-69850000D01*
%TO.N,Net-(J3-Pad1)*%
X118110000Y-66040000D02*
X118110000Y-69850000D01*
X119380000Y-100330000D02*
X119380000Y-74930000D01*
X118110000Y-73660000D02*
X118110000Y-69850000D01*
X119380000Y-74930000D02*
X118110000Y-73660000D01*
%TO.N,Net-(J1-Pad3)*%
X173990000Y-81280000D02*
X177800000Y-81280000D01*
%TO.N,Net-(R6-Pad1)*%
X138430000Y-85090000D02*
X138430000Y-102870000D01*
X138430000Y-102870000D02*
X139700000Y-104140000D01*
X139700000Y-104140000D02*
X140970000Y-104140000D01*
%TO.N,Net-(R7-Pad1)*%
X133350000Y-105410000D02*
X134620000Y-106680000D01*
X133350000Y-87630000D02*
X133350000Y-105410000D01*
%TO.N,Net-(R8-Pad1)*%
X162560000Y-78740000D02*
X162560000Y-88900000D01*
%TO.N,Net-(R10-Pad1)*%
X146050000Y-66040000D02*
X146050000Y-93980000D01*
%TO.N,Net-(R11-Pad1)*%
X144780000Y-99060000D02*
X144780000Y-69850000D01*
X143510000Y-68580000D02*
X140970000Y-68580000D01*
X144780000Y-69850000D02*
X143510000Y-68580000D01*
%TO.N,Net-(R12-Pad1)*%
X152400000Y-72390000D02*
X151130000Y-71120000D01*
X152400000Y-101600000D02*
X152400000Y-72390000D01*
%TO.N,Net-(R13-Pad1)*%
X143510000Y-105410000D02*
X143510000Y-73660000D01*
X143510000Y-73660000D02*
X140970000Y-73660000D01*
%TO.N,Net-(J5-Pad8)*%
X158750000Y-97790000D02*
X161290000Y-100330000D01*
X161290000Y-116754002D02*
X159934002Y-118110000D01*
X161290000Y-100330000D02*
X161290000Y-116754002D01*
X159934002Y-118195998D02*
X157480000Y-120650000D01*
X159934002Y-118110000D02*
X159934002Y-118195998D01*
%TO.N,Net-(J5-Pad7)*%
X154940000Y-120650000D02*
X154940000Y-82550000D01*
X154940000Y-82550000D02*
X156210000Y-81280000D01*
%TO.N,Net-(J5-Pad6)*%
X156210000Y-83820000D02*
X157480000Y-83820000D01*
X157480000Y-83820000D02*
X158750000Y-85090000D01*
X158750000Y-85090000D02*
X158750000Y-95250000D01*
X158750000Y-95250000D02*
X163830000Y-100330000D01*
X163830000Y-100330000D02*
X163830000Y-119380000D01*
%TO.N,Net-(J5-Pad5)*%
X148697999Y-119487999D02*
X149860000Y-120650000D01*
X148697999Y-96412001D02*
X148697999Y-119487999D01*
X149860000Y-95250000D02*
X148697999Y-96412001D01*
%TO.N,Net-(J5-Pad4)*%
X146157999Y-100222001D02*
X146157999Y-115677999D01*
X147320000Y-99060000D02*
X146157999Y-100222001D01*
X147320000Y-116840000D02*
X147320000Y-120650000D01*
X146157999Y-115677999D02*
X147320000Y-116840000D01*
%TO.N,Net-(J5-Pad3)*%
X156210000Y-109220000D02*
X157480000Y-109220000D01*
X157480000Y-109220000D02*
X158750000Y-110490000D01*
X158750000Y-110490000D02*
X158750000Y-115570000D01*
X158750000Y-115570000D02*
X157480000Y-116840000D01*
X157480000Y-116840000D02*
X157480000Y-118110000D01*
%TO.N,Net-(J5-Pad2)*%
X142240000Y-120650000D02*
X142240000Y-116840000D01*
X142240000Y-116840000D02*
X144780000Y-114300000D01*
%TO.N,Net-(J6-Pad6)*%
X143510000Y-59690000D02*
X143510000Y-60960000D01*
X143510000Y-60960000D02*
X140970000Y-63500000D01*
X140970000Y-63500000D02*
X139700000Y-63500000D01*
X139700000Y-63500000D02*
X138430000Y-64770000D01*
X138430000Y-64770000D02*
X138430000Y-74930000D01*
X139700000Y-76200000D02*
X140970000Y-76200000D01*
X138430000Y-74930000D02*
X139700000Y-76200000D01*
%TO.N,Net-(J6-Pad5)*%
X140970000Y-58420000D02*
X140970000Y-59690000D01*
X142240000Y-57150000D02*
X140970000Y-58420000D01*
X147320000Y-57150000D02*
X142240000Y-57150000D01*
X147320000Y-83820000D02*
X147320000Y-62230000D01*
X148590000Y-58420000D02*
X147320000Y-57150000D01*
X147320000Y-62230000D02*
X148590000Y-60960000D01*
X148590000Y-60960000D02*
X148590000Y-58420000D01*
%TO.N,Net-(J6-Pad4)*%
X137160000Y-60960000D02*
X138430000Y-59690000D01*
X137160000Y-86360000D02*
X137160000Y-60960000D01*
%TO.N,Net-(J6-Pad3)*%
X133819999Y-85889999D02*
X133819999Y-61760001D01*
X135090000Y-87160000D02*
X133819999Y-85889999D01*
X135090000Y-88900000D02*
X135090000Y-87160000D01*
X133819999Y-61760001D02*
X135890000Y-59690000D01*
%TO.N,Net-(J6-Pad2)*%
X129540000Y-93980000D02*
X129540000Y-62230000D01*
%TO.N,Net-(J6-Pad1)*%
X153670000Y-109220000D02*
X153670000Y-115570000D01*
X165100000Y-77470000D02*
X163830000Y-76200000D01*
X165100000Y-115570000D02*
X165100000Y-77470000D01*
X161290000Y-57150000D02*
X161290000Y-74930000D01*
%TO.N,Net-(Q1-Pad1)*%
X166370000Y-66040000D02*
X166370000Y-68580000D01*
X168148000Y-70358000D02*
X170180000Y-70358000D01*
X166370000Y-68580000D02*
X168148000Y-70358000D01*
X156210000Y-76200000D02*
X157480000Y-76200000D01*
X157480000Y-76200000D02*
X160020000Y-73660000D01*
X160020000Y-66040000D02*
X160020000Y-68580000D01*
X160020000Y-68580000D02*
X160020000Y-67310000D01*
X160020000Y-73660000D02*
X160020000Y-68580000D01*
%TO.N,Net-(Q1-Pad2)*%
X171450000Y-78740000D02*
X171450000Y-91440000D01*
%TD*%
M02*
