%TF.GenerationSoftware,KiCad,Pcbnew,5.1.6-c6e7f7d~86~ubuntu16.04.1*%
%TF.CreationDate,2020-07-11T20:05:59+01:00*%
%TF.ProjectId,bluepill-pb1,626c7565-7069-46c6-9c2d-7062312e6b69,rev?*%
%TF.SameCoordinates,Original*%
%TF.FileFunction,Soldermask,Top*%
%TF.FilePolarity,Negative*%
%FSLAX46Y46*%
G04 Gerber Fmt 4.6, Leading zero omitted, Abs format (unit mm)*
G04 Created by KiCad (PCBNEW 5.1.6-c6e7f7d~86~ubuntu16.04.1) date 2020-07-11 20:05:59*
%MOMM*%
%LPD*%
G01*
G04 APERTURE LIST*
%ADD10C,1.624000*%
%ADD11O,3.148000X1.950000*%
%ADD12O,1.800000X1.800000*%
%ADD13R,1.800000X1.800000*%
%ADD14O,1.700000X1.700000*%
%ADD15C,1.700000*%
%ADD16C,1.497000*%
%ADD17R,1.497000X1.497000*%
%ADD18C,0.100000*%
%ADD19R,1.624000X1.624000*%
G04 APERTURE END LIST*
D10*
%TO.C,U1*%
X140970000Y-109220000D03*
X151130000Y-81280000D03*
X151130000Y-78740000D03*
X151130000Y-76200000D03*
X153670000Y-81280000D03*
X153670000Y-78740000D03*
X153670000Y-76200000D03*
X152400000Y-110490000D03*
X149860000Y-110490000D03*
X147320000Y-110490000D03*
X144780000Y-110490000D03*
X156210000Y-66040000D03*
X156210000Y-68580000D03*
X156210000Y-71120000D03*
X156210000Y-73660000D03*
X156210000Y-76200000D03*
X156210000Y-78740000D03*
X156210000Y-81280000D03*
X156210000Y-83820000D03*
X156210000Y-86360000D03*
X156210000Y-88900000D03*
X156210000Y-91440000D03*
X156210000Y-93980000D03*
X156210000Y-96520000D03*
X156210000Y-99060000D03*
X156210000Y-101600000D03*
X156210000Y-104140000D03*
X156210000Y-106680000D03*
X156210000Y-109220000D03*
X156210000Y-111760000D03*
X156210000Y-114300000D03*
X140970000Y-114300000D03*
X140970000Y-111760000D03*
X140970000Y-106680000D03*
X140970000Y-104140000D03*
X140970000Y-101600000D03*
X140970000Y-99060000D03*
X140970000Y-96520000D03*
X140970000Y-93980000D03*
X140970000Y-91440000D03*
X140970000Y-88900000D03*
X140970000Y-86360000D03*
X140970000Y-83820000D03*
X140970000Y-81280000D03*
X140970000Y-78740000D03*
X140970000Y-76200000D03*
X140970000Y-73660000D03*
X140970000Y-71120000D03*
X140970000Y-68580000D03*
X140970000Y-66040000D03*
%TD*%
D11*
%TO.C,SW2*%
X99060000Y-118030000D03*
X99060000Y-113030000D03*
X111560000Y-118030000D03*
X111560000Y-113030000D03*
%TD*%
D12*
%TO.C,J6*%
X146050000Y-59690000D03*
X143510000Y-59690000D03*
X140970000Y-59690000D03*
X138430000Y-59690000D03*
X135890000Y-59690000D03*
X133350000Y-59690000D03*
D13*
X130810000Y-59690000D03*
%TD*%
D12*
%TO.C,J5*%
X160020000Y-120650000D03*
X157480000Y-120650000D03*
X154940000Y-120650000D03*
X152400000Y-120650000D03*
X149860000Y-120650000D03*
X147320000Y-120650000D03*
X144780000Y-120650000D03*
X142240000Y-120650000D03*
D13*
X139700000Y-120650000D03*
%TD*%
D14*
%TO.C,R14*%
X166370000Y-66040000D03*
D15*
X173990000Y-66040000D03*
%TD*%
D16*
%TO.C,Q1*%
X170180000Y-70358000D03*
X172212000Y-72390000D03*
D17*
X170180000Y-74422000D03*
%TD*%
D12*
%TO.C,J4*%
X110490000Y-66040000D03*
X113030000Y-66040000D03*
X115570000Y-66040000D03*
D13*
X118110000Y-66040000D03*
%TD*%
D12*
%TO.C,J2*%
X173990000Y-59690000D03*
X171450000Y-59690000D03*
X168910000Y-59690000D03*
D13*
X166370000Y-59690000D03*
%TD*%
D12*
%TO.C,J1*%
X177800000Y-101600000D03*
X177800000Y-99060000D03*
X177800000Y-96520000D03*
X177800000Y-93980000D03*
X177800000Y-91440000D03*
X177800000Y-88900000D03*
X177800000Y-86360000D03*
X177800000Y-83820000D03*
X177800000Y-81280000D03*
X177800000Y-78740000D03*
D13*
X177800000Y-76200000D03*
%TD*%
D18*
%TO.C,JP1*%
G36*
X163173889Y-74459398D02*
G01*
X163155466Y-74459398D01*
X163150565Y-74459157D01*
X163101734Y-74454347D01*
X163096881Y-74453627D01*
X163048756Y-74444055D01*
X163043995Y-74442863D01*
X162997040Y-74428619D01*
X162992421Y-74426966D01*
X162947088Y-74408189D01*
X162942651Y-74406091D01*
X162899378Y-74382960D01*
X162895171Y-74380438D01*
X162854372Y-74353178D01*
X162850430Y-74350254D01*
X162812501Y-74319126D01*
X162808866Y-74315831D01*
X162774169Y-74281134D01*
X162770874Y-74277499D01*
X162739746Y-74239570D01*
X162736822Y-74235628D01*
X162709562Y-74194829D01*
X162707040Y-74190622D01*
X162683909Y-74147349D01*
X162681811Y-74142912D01*
X162663034Y-74097579D01*
X162661381Y-74092960D01*
X162647137Y-74046005D01*
X162645945Y-74041244D01*
X162636373Y-73993119D01*
X162635653Y-73988266D01*
X162630843Y-73939435D01*
X162630602Y-73934534D01*
X162630602Y-73916111D01*
X162630000Y-73910000D01*
X162630000Y-73410000D01*
X162630602Y-73403889D01*
X162630602Y-73385466D01*
X162630843Y-73380565D01*
X162635653Y-73331734D01*
X162636373Y-73326881D01*
X162645945Y-73278756D01*
X162647137Y-73273995D01*
X162661381Y-73227040D01*
X162663034Y-73222421D01*
X162681811Y-73177088D01*
X162683909Y-73172651D01*
X162707040Y-73129378D01*
X162709562Y-73125171D01*
X162736822Y-73084372D01*
X162739746Y-73080430D01*
X162770874Y-73042501D01*
X162774169Y-73038866D01*
X162808866Y-73004169D01*
X162812501Y-73000874D01*
X162850430Y-72969746D01*
X162854372Y-72966822D01*
X162895171Y-72939562D01*
X162899378Y-72937040D01*
X162942651Y-72913909D01*
X162947088Y-72911811D01*
X162992421Y-72893034D01*
X162997040Y-72891381D01*
X163043995Y-72877137D01*
X163048756Y-72875945D01*
X163096881Y-72866373D01*
X163101734Y-72865653D01*
X163150565Y-72860843D01*
X163155466Y-72860602D01*
X163173889Y-72860602D01*
X163180000Y-72860000D01*
X163680000Y-72860000D01*
X163689755Y-72860961D01*
X163699134Y-72863806D01*
X163707779Y-72868427D01*
X163715355Y-72874645D01*
X163721573Y-72882221D01*
X163726194Y-72890866D01*
X163729039Y-72900245D01*
X163730000Y-72910000D01*
X163730000Y-74410000D01*
X163729039Y-74419755D01*
X163726194Y-74429134D01*
X163721573Y-74437779D01*
X163715355Y-74445355D01*
X163707779Y-74451573D01*
X163699134Y-74456194D01*
X163689755Y-74459039D01*
X163680000Y-74460000D01*
X163180000Y-74460000D01*
X163173889Y-74459398D01*
G37*
G36*
X163970245Y-74459039D02*
G01*
X163960866Y-74456194D01*
X163952221Y-74451573D01*
X163944645Y-74445355D01*
X163938427Y-74437779D01*
X163933806Y-74429134D01*
X163930961Y-74419755D01*
X163930000Y-74410000D01*
X163930000Y-72910000D01*
X163930961Y-72900245D01*
X163933806Y-72890866D01*
X163938427Y-72882221D01*
X163944645Y-72874645D01*
X163952221Y-72868427D01*
X163960866Y-72863806D01*
X163970245Y-72860961D01*
X163980000Y-72860000D01*
X164480000Y-72860000D01*
X164486111Y-72860602D01*
X164504534Y-72860602D01*
X164509435Y-72860843D01*
X164558266Y-72865653D01*
X164563119Y-72866373D01*
X164611244Y-72875945D01*
X164616005Y-72877137D01*
X164662960Y-72891381D01*
X164667579Y-72893034D01*
X164712912Y-72911811D01*
X164717349Y-72913909D01*
X164760622Y-72937040D01*
X164764829Y-72939562D01*
X164805628Y-72966822D01*
X164809570Y-72969746D01*
X164847499Y-73000874D01*
X164851134Y-73004169D01*
X164885831Y-73038866D01*
X164889126Y-73042501D01*
X164920254Y-73080430D01*
X164923178Y-73084372D01*
X164950438Y-73125171D01*
X164952960Y-73129378D01*
X164976091Y-73172651D01*
X164978189Y-73177088D01*
X164996966Y-73222421D01*
X164998619Y-73227040D01*
X165012863Y-73273995D01*
X165014055Y-73278756D01*
X165023627Y-73326881D01*
X165024347Y-73331734D01*
X165029157Y-73380565D01*
X165029398Y-73385466D01*
X165029398Y-73403889D01*
X165030000Y-73410000D01*
X165030000Y-73910000D01*
X165029398Y-73916111D01*
X165029398Y-73934534D01*
X165029157Y-73939435D01*
X165024347Y-73988266D01*
X165023627Y-73993119D01*
X165014055Y-74041244D01*
X165012863Y-74046005D01*
X164998619Y-74092960D01*
X164996966Y-74097579D01*
X164978189Y-74142912D01*
X164976091Y-74147349D01*
X164952960Y-74190622D01*
X164950438Y-74194829D01*
X164923178Y-74235628D01*
X164920254Y-74239570D01*
X164889126Y-74277499D01*
X164885831Y-74281134D01*
X164851134Y-74315831D01*
X164847499Y-74319126D01*
X164809570Y-74350254D01*
X164805628Y-74353178D01*
X164764829Y-74380438D01*
X164760622Y-74382960D01*
X164717349Y-74406091D01*
X164712912Y-74408189D01*
X164667579Y-74426966D01*
X164662960Y-74428619D01*
X164616005Y-74442863D01*
X164611244Y-74444055D01*
X164563119Y-74453627D01*
X164558266Y-74454347D01*
X164509435Y-74459157D01*
X164504534Y-74459398D01*
X164486111Y-74459398D01*
X164480000Y-74460000D01*
X163980000Y-74460000D01*
X163970245Y-74459039D01*
G37*
%TD*%
D14*
%TO.C,R13*%
X173990000Y-101600000D03*
D15*
X166370000Y-101600000D03*
%TD*%
D14*
%TO.C,R12*%
X173990000Y-99060000D03*
D15*
X166370000Y-99060000D03*
%TD*%
D14*
%TO.C,R11*%
X173990000Y-96520000D03*
D15*
X166370000Y-96520000D03*
%TD*%
D14*
%TO.C,R10*%
X173990000Y-93980000D03*
D15*
X166370000Y-93980000D03*
%TD*%
D14*
%TO.C,R9*%
X173990000Y-91440000D03*
D15*
X166370000Y-91440000D03*
%TD*%
D14*
%TO.C,R8*%
X173990000Y-88900000D03*
D15*
X166370000Y-88900000D03*
%TD*%
D14*
%TO.C,R7*%
X173990000Y-86360000D03*
D15*
X166370000Y-86360000D03*
%TD*%
D14*
%TO.C,R6*%
X173990000Y-83820000D03*
D15*
X166370000Y-83820000D03*
%TD*%
D14*
%TO.C,R5*%
X173990000Y-81280000D03*
D15*
X166370000Y-81280000D03*
%TD*%
D14*
%TO.C,R4*%
X173990000Y-78740000D03*
D15*
X166370000Y-78740000D03*
%TD*%
D11*
%TO.C,SW3*%
X118110000Y-118030000D03*
X118110000Y-113030000D03*
X130610000Y-118030000D03*
X130610000Y-113030000D03*
%TD*%
%TO.C,SW1*%
X80010000Y-118030000D03*
X80010000Y-113030000D03*
X92510000Y-118030000D03*
X92510000Y-113030000D03*
%TD*%
D14*
%TO.C,R3*%
X128270000Y-104140000D03*
D15*
X120650000Y-104140000D03*
%TD*%
D14*
%TO.C,R2*%
X109220000Y-104140000D03*
D15*
X101600000Y-104140000D03*
%TD*%
D14*
%TO.C,R1*%
X90170000Y-104140000D03*
D15*
X82550000Y-104140000D03*
%TD*%
D12*
%TO.C,J3*%
X110490000Y-69850000D03*
X113030000Y-69850000D03*
X115570000Y-69850000D03*
D13*
X118110000Y-69850000D03*
%TD*%
D10*
%TO.C,A1*%
X95250000Y-81280000D03*
X95250000Y-83820000D03*
X95250000Y-86360000D03*
X95250000Y-88900000D03*
X95250000Y-91440000D03*
D19*
X95250000Y-93980000D03*
%TD*%
M02*
