%TF.GenerationSoftware,KiCad,Pcbnew,5.1.6-c6e7f7d~86~ubuntu16.04.1*%
%TF.CreationDate,2020-07-11T20:05:59+01:00*%
%TF.ProjectId,bluepill-pb1,626c7565-7069-46c6-9c2d-7062312e6b69,rev?*%
%TF.SameCoordinates,Original*%
%TF.FileFunction,Legend,Top*%
%TF.FilePolarity,Positive*%
%FSLAX46Y46*%
G04 Gerber Fmt 4.6, Leading zero omitted, Abs format (unit mm)*
G04 Created by KiCad (PCBNEW 5.1.6-c6e7f7d~86~ubuntu16.04.1) date 2020-07-11 20:05:59*
%MOMM*%
%LPD*%
G01*
G04 APERTURE LIST*
%ADD10C,0.120000*%
%ADD11C,0.150000*%
%ADD12C,0.304800*%
%ADD13C,0.203200*%
G04 APERTURE END LIST*
D10*
X100330000Y-91440000D02*
X100330000Y-63500000D01*
X128270000Y-91440000D02*
X100330000Y-91440000D01*
X128270000Y-63500000D02*
X128270000Y-91440000D01*
X100330000Y-63500000D02*
X128270000Y-63500000D01*
D11*
X165060952Y-64270000D02*
X164965714Y-64222380D01*
X164822857Y-64222380D01*
X164680000Y-64270000D01*
X164584761Y-64365238D01*
X164537142Y-64460476D01*
X164489523Y-64650952D01*
X164489523Y-64793809D01*
X164537142Y-64984285D01*
X164584761Y-65079523D01*
X164680000Y-65174761D01*
X164822857Y-65222380D01*
X164918095Y-65222380D01*
X165060952Y-65174761D01*
X165108571Y-65127142D01*
X165108571Y-64793809D01*
X164918095Y-64793809D01*
X165537142Y-65222380D02*
X165537142Y-64222380D01*
X166108571Y-65222380D01*
X166108571Y-64222380D01*
X166584761Y-65222380D02*
X166584761Y-64222380D01*
X166822857Y-64222380D01*
X166965714Y-64270000D01*
X167060952Y-64365238D01*
X167108571Y-64460476D01*
X167156190Y-64650952D01*
X167156190Y-64793809D01*
X167108571Y-64984285D01*
X167060952Y-65079523D01*
X166965714Y-65174761D01*
X166822857Y-65222380D01*
X166584761Y-65222380D01*
X168203809Y-64222380D02*
X168775238Y-64222380D01*
X168489523Y-65222380D02*
X168489523Y-64222380D01*
X169013333Y-64222380D02*
X169680000Y-65222380D01*
X169680000Y-64222380D02*
X169013333Y-65222380D01*
X171394285Y-65222380D02*
X171060952Y-64746190D01*
X170822857Y-65222380D02*
X170822857Y-64222380D01*
X171203809Y-64222380D01*
X171299047Y-64270000D01*
X171346666Y-64317619D01*
X171394285Y-64412857D01*
X171394285Y-64555714D01*
X171346666Y-64650952D01*
X171299047Y-64698571D01*
X171203809Y-64746190D01*
X170822857Y-64746190D01*
X171727619Y-64222380D02*
X172394285Y-65222380D01*
X172394285Y-64222380D02*
X171727619Y-65222380D01*
X173441904Y-64222380D02*
X174060952Y-64222380D01*
X173727619Y-64603333D01*
X173870476Y-64603333D01*
X173965714Y-64650952D01*
X174013333Y-64698571D01*
X174060952Y-64793809D01*
X174060952Y-65031904D01*
X174013333Y-65127142D01*
X173965714Y-65174761D01*
X173870476Y-65222380D01*
X173584761Y-65222380D01*
X173489523Y-65174761D01*
X173441904Y-65127142D01*
X174346666Y-64222380D02*
X174680000Y-65222380D01*
X175013333Y-64222380D01*
X175251428Y-64222380D02*
X175870476Y-64222380D01*
X175537142Y-64603333D01*
X175680000Y-64603333D01*
X175775238Y-64650952D01*
X175822857Y-64698571D01*
X175870476Y-64793809D01*
X175870476Y-65031904D01*
X175822857Y-65127142D01*
X175775238Y-65174761D01*
X175680000Y-65222380D01*
X175394285Y-65222380D01*
X175299047Y-65174761D01*
X175251428Y-65127142D01*
X108180952Y-73160000D02*
X108085714Y-73112380D01*
X107942857Y-73112380D01*
X107800000Y-73160000D01*
X107704761Y-73255238D01*
X107657142Y-73350476D01*
X107609523Y-73540952D01*
X107609523Y-73683809D01*
X107657142Y-73874285D01*
X107704761Y-73969523D01*
X107800000Y-74064761D01*
X107942857Y-74112380D01*
X108038095Y-74112380D01*
X108180952Y-74064761D01*
X108228571Y-74017142D01*
X108228571Y-73683809D01*
X108038095Y-73683809D01*
X108657142Y-74112380D02*
X108657142Y-73112380D01*
X109228571Y-74112380D01*
X109228571Y-73112380D01*
X109704761Y-74112380D02*
X109704761Y-73112380D01*
X109942857Y-73112380D01*
X110085714Y-73160000D01*
X110180952Y-73255238D01*
X110228571Y-73350476D01*
X110276190Y-73540952D01*
X110276190Y-73683809D01*
X110228571Y-73874285D01*
X110180952Y-73969523D01*
X110085714Y-74064761D01*
X109942857Y-74112380D01*
X109704761Y-74112380D01*
X111323809Y-73112380D02*
X111657142Y-74112380D01*
X111990476Y-73112380D01*
X112895238Y-74017142D02*
X112847619Y-74064761D01*
X112704761Y-74112380D01*
X112609523Y-74112380D01*
X112466666Y-74064761D01*
X112371428Y-73969523D01*
X112323809Y-73874285D01*
X112276190Y-73683809D01*
X112276190Y-73540952D01*
X112323809Y-73350476D01*
X112371428Y-73255238D01*
X112466666Y-73160000D01*
X112609523Y-73112380D01*
X112704761Y-73112380D01*
X112847619Y-73160000D01*
X112895238Y-73207619D01*
X113895238Y-74017142D02*
X113847619Y-74064761D01*
X113704761Y-74112380D01*
X113609523Y-74112380D01*
X113466666Y-74064761D01*
X113371428Y-73969523D01*
X113323809Y-73874285D01*
X113276190Y-73683809D01*
X113276190Y-73540952D01*
X113323809Y-73350476D01*
X113371428Y-73255238D01*
X113466666Y-73160000D01*
X113609523Y-73112380D01*
X113704761Y-73112380D01*
X113847619Y-73160000D01*
X113895238Y-73207619D01*
X115038095Y-74064761D02*
X115180952Y-74112380D01*
X115419047Y-74112380D01*
X115514285Y-74064761D01*
X115561904Y-74017142D01*
X115609523Y-73921904D01*
X115609523Y-73826666D01*
X115561904Y-73731428D01*
X115514285Y-73683809D01*
X115419047Y-73636190D01*
X115228571Y-73588571D01*
X115133333Y-73540952D01*
X115085714Y-73493333D01*
X115038095Y-73398095D01*
X115038095Y-73302857D01*
X115085714Y-73207619D01*
X115133333Y-73160000D01*
X115228571Y-73112380D01*
X115466666Y-73112380D01*
X115609523Y-73160000D01*
X116609523Y-74017142D02*
X116561904Y-74064761D01*
X116419047Y-74112380D01*
X116323809Y-74112380D01*
X116180952Y-74064761D01*
X116085714Y-73969523D01*
X116038095Y-73874285D01*
X115990476Y-73683809D01*
X115990476Y-73540952D01*
X116038095Y-73350476D01*
X116085714Y-73255238D01*
X116180952Y-73160000D01*
X116323809Y-73112380D01*
X116419047Y-73112380D01*
X116561904Y-73160000D01*
X116609523Y-73207619D01*
X117514285Y-74112380D02*
X117038095Y-74112380D01*
X117038095Y-73112380D01*
X118561904Y-74064761D02*
X118704761Y-74112380D01*
X118942857Y-74112380D01*
X119038095Y-74064761D01*
X119085714Y-74017142D01*
X119133333Y-73921904D01*
X119133333Y-73826666D01*
X119085714Y-73731428D01*
X119038095Y-73683809D01*
X118942857Y-73636190D01*
X118752380Y-73588571D01*
X118657142Y-73540952D01*
X118609523Y-73493333D01*
X118561904Y-73398095D01*
X118561904Y-73302857D01*
X118609523Y-73207619D01*
X118657142Y-73160000D01*
X118752380Y-73112380D01*
X118990476Y-73112380D01*
X119133333Y-73160000D01*
X119561904Y-74112380D02*
X119561904Y-73112380D01*
X119799999Y-73112380D01*
X119942857Y-73160000D01*
X120038095Y-73255238D01*
X120085714Y-73350476D01*
X120133333Y-73540952D01*
X120133333Y-73683809D01*
X120085714Y-73874285D01*
X120038095Y-73969523D01*
X119942857Y-74064761D01*
X119799999Y-74112380D01*
X119561904Y-74112380D01*
X120514285Y-73826666D02*
X120990476Y-73826666D01*
X120419047Y-74112380D02*
X120752380Y-73112380D01*
X121085714Y-74112380D01*
X108014285Y-61682380D02*
X108347619Y-62682380D01*
X108680952Y-61682380D01*
X109585714Y-62587142D02*
X109538095Y-62634761D01*
X109395238Y-62682380D01*
X109300000Y-62682380D01*
X109157142Y-62634761D01*
X109061904Y-62539523D01*
X109014285Y-62444285D01*
X108966666Y-62253809D01*
X108966666Y-62110952D01*
X109014285Y-61920476D01*
X109061904Y-61825238D01*
X109157142Y-61730000D01*
X109300000Y-61682380D01*
X109395238Y-61682380D01*
X109538095Y-61730000D01*
X109585714Y-61777619D01*
X110585714Y-62587142D02*
X110538095Y-62634761D01*
X110395238Y-62682380D01*
X110300000Y-62682380D01*
X110157142Y-62634761D01*
X110061904Y-62539523D01*
X110014285Y-62444285D01*
X109966666Y-62253809D01*
X109966666Y-62110952D01*
X110014285Y-61920476D01*
X110061904Y-61825238D01*
X110157142Y-61730000D01*
X110300000Y-61682380D01*
X110395238Y-61682380D01*
X110538095Y-61730000D01*
X110585714Y-61777619D01*
X112300000Y-61730000D02*
X112204761Y-61682380D01*
X112061904Y-61682380D01*
X111919047Y-61730000D01*
X111823809Y-61825238D01*
X111776190Y-61920476D01*
X111728571Y-62110952D01*
X111728571Y-62253809D01*
X111776190Y-62444285D01*
X111823809Y-62539523D01*
X111919047Y-62634761D01*
X112061904Y-62682380D01*
X112157142Y-62682380D01*
X112300000Y-62634761D01*
X112347619Y-62587142D01*
X112347619Y-62253809D01*
X112157142Y-62253809D01*
X112776190Y-62682380D02*
X112776190Y-61682380D01*
X113347619Y-62682380D01*
X113347619Y-61682380D01*
X113823809Y-62682380D02*
X113823809Y-61682380D01*
X114061904Y-61682380D01*
X114204761Y-61730000D01*
X114300000Y-61825238D01*
X114347619Y-61920476D01*
X114395238Y-62110952D01*
X114395238Y-62253809D01*
X114347619Y-62444285D01*
X114300000Y-62539523D01*
X114204761Y-62634761D01*
X114061904Y-62682380D01*
X113823809Y-62682380D01*
X115538095Y-62634761D02*
X115680952Y-62682380D01*
X115919047Y-62682380D01*
X116014285Y-62634761D01*
X116061904Y-62587142D01*
X116109523Y-62491904D01*
X116109523Y-62396666D01*
X116061904Y-62301428D01*
X116014285Y-62253809D01*
X115919047Y-62206190D01*
X115728571Y-62158571D01*
X115633333Y-62110952D01*
X115585714Y-62063333D01*
X115538095Y-61968095D01*
X115538095Y-61872857D01*
X115585714Y-61777619D01*
X115633333Y-61730000D01*
X115728571Y-61682380D01*
X115966666Y-61682380D01*
X116109523Y-61730000D01*
X117014285Y-62682380D02*
X116538095Y-62682380D01*
X116538095Y-61682380D01*
X118061904Y-62634761D02*
X118204761Y-62682380D01*
X118442857Y-62682380D01*
X118538095Y-62634761D01*
X118585714Y-62587142D01*
X118633333Y-62491904D01*
X118633333Y-62396666D01*
X118585714Y-62301428D01*
X118538095Y-62253809D01*
X118442857Y-62206190D01*
X118252380Y-62158571D01*
X118157142Y-62110952D01*
X118109523Y-62063333D01*
X118061904Y-61968095D01*
X118061904Y-61872857D01*
X118109523Y-61777619D01*
X118157142Y-61730000D01*
X118252380Y-61682380D01*
X118490476Y-61682380D01*
X118633333Y-61730000D01*
X119061904Y-62682380D02*
X119061904Y-61682380D01*
X119299999Y-61682380D01*
X119442857Y-61730000D01*
X119538095Y-61825238D01*
X119585714Y-61920476D01*
X119633333Y-62110952D01*
X119633333Y-62253809D01*
X119585714Y-62444285D01*
X119538095Y-62539523D01*
X119442857Y-62634761D01*
X119299999Y-62682380D01*
X119061904Y-62682380D01*
X120014285Y-62396666D02*
X120490476Y-62396666D01*
X119919047Y-62682380D02*
X120252380Y-61682380D01*
X120585714Y-62682380D01*
%TO.C,U1*%
X144790000Y-63770000D02*
X144790000Y-68270000D01*
X144790000Y-68270000D02*
X152390000Y-68270000D01*
X152390000Y-68270000D02*
X152390000Y-63770000D01*
X137340000Y-63670000D02*
X159840000Y-63670000D01*
X159840000Y-63670000D02*
X159840000Y-116670000D01*
X159840000Y-116670000D02*
X137340000Y-116670000D01*
X137340000Y-116670000D02*
X137340000Y-63670000D01*
D10*
%TO.C,SW2*%
X99160000Y-109380000D02*
X111460000Y-109380000D01*
X111460000Y-113960000D02*
X111460000Y-117100000D01*
X111460000Y-121680000D02*
X99160000Y-121680000D01*
X99160000Y-112100000D02*
X99160000Y-109380000D01*
X109989050Y-115570000D02*
G75*
G03*
X109989050Y-115570000I-4579050J0D01*
G01*
X99160000Y-121680000D02*
X99160000Y-118960000D01*
X99160000Y-117100000D02*
X99160000Y-113960000D01*
X111460000Y-118960000D02*
X111460000Y-121680000D01*
X111460000Y-109380000D02*
X111460000Y-112100000D01*
%TO.C,J6*%
X147380000Y-61020000D02*
X147380000Y-58360000D01*
X132080000Y-61020000D02*
X147380000Y-61020000D01*
X132080000Y-58360000D02*
X147380000Y-58360000D01*
X132080000Y-61020000D02*
X132080000Y-58360000D01*
X130810000Y-61020000D02*
X129480000Y-61020000D01*
X129480000Y-61020000D02*
X129480000Y-59690000D01*
%TO.C,J5*%
X161350000Y-121980000D02*
X161350000Y-119320000D01*
X140970000Y-121980000D02*
X161350000Y-121980000D01*
X140970000Y-119320000D02*
X161350000Y-119320000D01*
X140970000Y-121980000D02*
X140970000Y-119320000D01*
X139700000Y-121980000D02*
X138370000Y-121980000D01*
X138370000Y-121980000D02*
X138370000Y-120650000D01*
%TO.C,R14*%
X173450000Y-67080000D02*
X173450000Y-67410000D01*
X173450000Y-67410000D02*
X166910000Y-67410000D01*
X166910000Y-67410000D02*
X166910000Y-67080000D01*
X173450000Y-65000000D02*
X173450000Y-64670000D01*
X173450000Y-64670000D02*
X166910000Y-64670000D01*
X166910000Y-64670000D02*
X166910000Y-65000000D01*
D12*
%TO.C,Q1*%
X173736000Y-71374000D02*
X173736000Y-73406000D01*
X173736000Y-71374000D02*
X171450000Y-69088000D01*
X173736000Y-73406000D02*
X171450000Y-75692000D01*
X169164000Y-69088000D02*
X171450000Y-69088000D01*
X168656000Y-69596000D02*
X169164000Y-69088000D01*
X168656000Y-75184000D02*
X168656000Y-69596000D01*
X169164000Y-75692000D02*
X168656000Y-75184000D01*
X171450000Y-75692000D02*
X169164000Y-75692000D01*
D10*
%TO.C,J4*%
X119440000Y-64710000D02*
X119440000Y-66040000D01*
X118110000Y-64710000D02*
X119440000Y-64710000D01*
X116840000Y-64710000D02*
X116840000Y-67370000D01*
X116840000Y-67370000D02*
X109160000Y-67370000D01*
X116840000Y-64710000D02*
X109160000Y-64710000D01*
X109160000Y-64710000D02*
X109160000Y-67370000D01*
%TO.C,J2*%
X165040000Y-61020000D02*
X165040000Y-59690000D01*
X166370000Y-61020000D02*
X165040000Y-61020000D01*
X167640000Y-61020000D02*
X167640000Y-58360000D01*
X167640000Y-58360000D02*
X175320000Y-58360000D01*
X167640000Y-61020000D02*
X175320000Y-61020000D01*
X175320000Y-61020000D02*
X175320000Y-58360000D01*
%TO.C,J1*%
X176470000Y-74870000D02*
X177800000Y-74870000D01*
X176470000Y-76200000D02*
X176470000Y-74870000D01*
X176470000Y-77470000D02*
X179130000Y-77470000D01*
X179130000Y-77470000D02*
X179130000Y-102930000D01*
X176470000Y-77470000D02*
X176470000Y-102930000D01*
X176470000Y-102930000D02*
X179130000Y-102930000D01*
%TO.C,JP1*%
X164530000Y-74660000D02*
X163130000Y-74660000D01*
X162430000Y-73960000D02*
X162430000Y-73360000D01*
X163130000Y-72660000D02*
X164530000Y-72660000D01*
X165230000Y-73360000D02*
X165230000Y-73960000D01*
X165230000Y-73960000D02*
G75*
G02*
X164530000Y-74660000I-700000J0D01*
G01*
X164530000Y-72660000D02*
G75*
G02*
X165230000Y-73360000I0J-700000D01*
G01*
X162430000Y-73360000D02*
G75*
G02*
X163130000Y-72660000I700000J0D01*
G01*
X163130000Y-74660000D02*
G75*
G02*
X162430000Y-73960000I0J700000D01*
G01*
%TO.C,R13*%
X173450000Y-102970000D02*
X173450000Y-102640000D01*
X166910000Y-102970000D02*
X173450000Y-102970000D01*
X166910000Y-102640000D02*
X166910000Y-102970000D01*
X173450000Y-100230000D02*
X173450000Y-100560000D01*
X166910000Y-100230000D02*
X173450000Y-100230000D01*
X166910000Y-100560000D02*
X166910000Y-100230000D01*
%TO.C,R12*%
X173450000Y-100430000D02*
X173450000Y-100100000D01*
X166910000Y-100430000D02*
X173450000Y-100430000D01*
X166910000Y-100100000D02*
X166910000Y-100430000D01*
X173450000Y-97690000D02*
X173450000Y-98020000D01*
X166910000Y-97690000D02*
X173450000Y-97690000D01*
X166910000Y-98020000D02*
X166910000Y-97690000D01*
%TO.C,R11*%
X173450000Y-97890000D02*
X173450000Y-97560000D01*
X166910000Y-97890000D02*
X173450000Y-97890000D01*
X166910000Y-97560000D02*
X166910000Y-97890000D01*
X173450000Y-95150000D02*
X173450000Y-95480000D01*
X166910000Y-95150000D02*
X173450000Y-95150000D01*
X166910000Y-95480000D02*
X166910000Y-95150000D01*
%TO.C,R10*%
X173450000Y-95350000D02*
X173450000Y-95020000D01*
X166910000Y-95350000D02*
X173450000Y-95350000D01*
X166910000Y-95020000D02*
X166910000Y-95350000D01*
X173450000Y-92610000D02*
X173450000Y-92940000D01*
X166910000Y-92610000D02*
X173450000Y-92610000D01*
X166910000Y-92940000D02*
X166910000Y-92610000D01*
%TO.C,R9*%
X173450000Y-92810000D02*
X173450000Y-92480000D01*
X166910000Y-92810000D02*
X173450000Y-92810000D01*
X166910000Y-92480000D02*
X166910000Y-92810000D01*
X173450000Y-90070000D02*
X173450000Y-90400000D01*
X166910000Y-90070000D02*
X173450000Y-90070000D01*
X166910000Y-90400000D02*
X166910000Y-90070000D01*
%TO.C,R8*%
X173450000Y-90270000D02*
X173450000Y-89940000D01*
X166910000Y-90270000D02*
X173450000Y-90270000D01*
X166910000Y-89940000D02*
X166910000Y-90270000D01*
X173450000Y-87530000D02*
X173450000Y-87860000D01*
X166910000Y-87530000D02*
X173450000Y-87530000D01*
X166910000Y-87860000D02*
X166910000Y-87530000D01*
%TO.C,R7*%
X173450000Y-87730000D02*
X173450000Y-87400000D01*
X166910000Y-87730000D02*
X173450000Y-87730000D01*
X166910000Y-87400000D02*
X166910000Y-87730000D01*
X173450000Y-84990000D02*
X173450000Y-85320000D01*
X166910000Y-84990000D02*
X173450000Y-84990000D01*
X166910000Y-85320000D02*
X166910000Y-84990000D01*
%TO.C,R6*%
X173450000Y-85190000D02*
X173450000Y-84860000D01*
X166910000Y-85190000D02*
X173450000Y-85190000D01*
X166910000Y-84860000D02*
X166910000Y-85190000D01*
X173450000Y-82450000D02*
X173450000Y-82780000D01*
X166910000Y-82450000D02*
X173450000Y-82450000D01*
X166910000Y-82780000D02*
X166910000Y-82450000D01*
%TO.C,R5*%
X173450000Y-82650000D02*
X173450000Y-82320000D01*
X166910000Y-82650000D02*
X173450000Y-82650000D01*
X166910000Y-82320000D02*
X166910000Y-82650000D01*
X173450000Y-79910000D02*
X173450000Y-80240000D01*
X166910000Y-79910000D02*
X173450000Y-79910000D01*
X166910000Y-80240000D02*
X166910000Y-79910000D01*
%TO.C,R4*%
X173450000Y-80110000D02*
X173450000Y-79780000D01*
X166910000Y-80110000D02*
X173450000Y-80110000D01*
X166910000Y-79780000D02*
X166910000Y-80110000D01*
X173450000Y-77370000D02*
X173450000Y-77700000D01*
X166910000Y-77370000D02*
X173450000Y-77370000D01*
X166910000Y-77700000D02*
X166910000Y-77370000D01*
%TO.C,SW3*%
X118210000Y-109380000D02*
X130510000Y-109380000D01*
X130510000Y-113960000D02*
X130510000Y-117100000D01*
X130510000Y-121680000D02*
X118210000Y-121680000D01*
X118210000Y-112100000D02*
X118210000Y-109380000D01*
X129039050Y-115570000D02*
G75*
G03*
X129039050Y-115570000I-4579050J0D01*
G01*
X118210000Y-121680000D02*
X118210000Y-118960000D01*
X118210000Y-117100000D02*
X118210000Y-113960000D01*
X130510000Y-118960000D02*
X130510000Y-121680000D01*
X130510000Y-109380000D02*
X130510000Y-112100000D01*
%TO.C,SW1*%
X80110000Y-109380000D02*
X92410000Y-109380000D01*
X92410000Y-113960000D02*
X92410000Y-117100000D01*
X92410000Y-121680000D02*
X80110000Y-121680000D01*
X80110000Y-112100000D02*
X80110000Y-109380000D01*
X90939050Y-115570000D02*
G75*
G03*
X90939050Y-115570000I-4579050J0D01*
G01*
X80110000Y-121680000D02*
X80110000Y-118960000D01*
X80110000Y-117100000D02*
X80110000Y-113960000D01*
X92410000Y-118960000D02*
X92410000Y-121680000D01*
X92410000Y-109380000D02*
X92410000Y-112100000D01*
%TO.C,R3*%
X121190000Y-103100000D02*
X121190000Y-102770000D01*
X121190000Y-102770000D02*
X127730000Y-102770000D01*
X127730000Y-102770000D02*
X127730000Y-103100000D01*
X121190000Y-105180000D02*
X121190000Y-105510000D01*
X121190000Y-105510000D02*
X127730000Y-105510000D01*
X127730000Y-105510000D02*
X127730000Y-105180000D01*
%TO.C,R2*%
X102140000Y-103100000D02*
X102140000Y-102770000D01*
X102140000Y-102770000D02*
X108680000Y-102770000D01*
X108680000Y-102770000D02*
X108680000Y-103100000D01*
X102140000Y-105180000D02*
X102140000Y-105510000D01*
X102140000Y-105510000D02*
X108680000Y-105510000D01*
X108680000Y-105510000D02*
X108680000Y-105180000D01*
%TO.C,R1*%
X83090000Y-103100000D02*
X83090000Y-102770000D01*
X83090000Y-102770000D02*
X89630000Y-102770000D01*
X89630000Y-102770000D02*
X89630000Y-103100000D01*
X83090000Y-105180000D02*
X83090000Y-105510000D01*
X83090000Y-105510000D02*
X89630000Y-105510000D01*
X89630000Y-105510000D02*
X89630000Y-105180000D01*
%TO.C,J3*%
X109160000Y-68520000D02*
X109160000Y-71180000D01*
X116840000Y-68520000D02*
X109160000Y-68520000D01*
X116840000Y-71180000D02*
X109160000Y-71180000D01*
X116840000Y-68520000D02*
X116840000Y-71180000D01*
X118110000Y-68520000D02*
X119440000Y-68520000D01*
X119440000Y-68520000D02*
X119440000Y-69850000D01*
%TO.C,A1*%
X96520000Y-96520000D02*
X78740000Y-96520000D01*
X78740000Y-96520000D02*
X78740000Y-78740000D01*
X78740000Y-78740000D02*
X96520000Y-78740000D01*
X96520000Y-78740000D02*
X96520000Y-96520000D01*
X86360000Y-93980000D02*
X86360000Y-81280000D01*
X86360000Y-81280000D02*
X76200000Y-81280000D01*
X86360000Y-93980000D02*
X76200000Y-93980000D01*
X76200000Y-93980000D02*
X76200000Y-92075000D01*
X76200000Y-81280000D02*
X76200000Y-83185000D01*
X76200000Y-93345000D02*
X68580000Y-93345000D01*
X68580000Y-93345000D02*
X68580000Y-81915000D01*
X68580000Y-81915000D02*
X76200000Y-81915000D01*
X76200000Y-83185001D02*
G75*
G02*
X76200000Y-92075000I-10160000J-4444999D01*
G01*
%TO.C,U1*%
D11*
X147828095Y-115022380D02*
X147828095Y-115831904D01*
X147875714Y-115927142D01*
X147923333Y-115974761D01*
X148018571Y-116022380D01*
X148209047Y-116022380D01*
X148304285Y-115974761D01*
X148351904Y-115927142D01*
X148399523Y-115831904D01*
X148399523Y-115022380D01*
X149399523Y-116022380D02*
X148828095Y-116022380D01*
X149113809Y-116022380D02*
X149113809Y-115022380D01*
X149018571Y-115165238D01*
X148923333Y-115260476D01*
X148828095Y-115308095D01*
%TO.C,SW2*%
X103806666Y-108774761D02*
X103949523Y-108822380D01*
X104187619Y-108822380D01*
X104282857Y-108774761D01*
X104330476Y-108727142D01*
X104378095Y-108631904D01*
X104378095Y-108536666D01*
X104330476Y-108441428D01*
X104282857Y-108393809D01*
X104187619Y-108346190D01*
X103997142Y-108298571D01*
X103901904Y-108250952D01*
X103854285Y-108203333D01*
X103806666Y-108108095D01*
X103806666Y-108012857D01*
X103854285Y-107917619D01*
X103901904Y-107870000D01*
X103997142Y-107822380D01*
X104235238Y-107822380D01*
X104378095Y-107870000D01*
X104711428Y-107822380D02*
X104949523Y-108822380D01*
X105140000Y-108108095D01*
X105330476Y-108822380D01*
X105568571Y-107822380D01*
X105901904Y-107917619D02*
X105949523Y-107870000D01*
X106044761Y-107822380D01*
X106282857Y-107822380D01*
X106378095Y-107870000D01*
X106425714Y-107917619D01*
X106473333Y-108012857D01*
X106473333Y-108108095D01*
X106425714Y-108250952D01*
X105854285Y-108822380D01*
X106473333Y-108822380D01*
%TO.C,J6*%
X127932380Y-60023333D02*
X128646666Y-60023333D01*
X128789523Y-60070952D01*
X128884761Y-60166190D01*
X128932380Y-60309047D01*
X128932380Y-60404285D01*
X127932380Y-59118571D02*
X127932380Y-59309047D01*
X127980000Y-59404285D01*
X128027619Y-59451904D01*
X128170476Y-59547142D01*
X128360952Y-59594761D01*
X128741904Y-59594761D01*
X128837142Y-59547142D01*
X128884761Y-59499523D01*
X128932380Y-59404285D01*
X128932380Y-59213809D01*
X128884761Y-59118571D01*
X128837142Y-59070952D01*
X128741904Y-59023333D01*
X128503809Y-59023333D01*
X128408571Y-59070952D01*
X128360952Y-59118571D01*
X128313333Y-59213809D01*
X128313333Y-59404285D01*
X128360952Y-59499523D01*
X128408571Y-59547142D01*
X128503809Y-59594761D01*
%TO.C,J5*%
X136822380Y-120983333D02*
X137536666Y-120983333D01*
X137679523Y-121030952D01*
X137774761Y-121126190D01*
X137822380Y-121269047D01*
X137822380Y-121364285D01*
X136822380Y-120030952D02*
X136822380Y-120507142D01*
X137298571Y-120554761D01*
X137250952Y-120507142D01*
X137203333Y-120411904D01*
X137203333Y-120173809D01*
X137250952Y-120078571D01*
X137298571Y-120030952D01*
X137393809Y-119983333D01*
X137631904Y-119983333D01*
X137727142Y-120030952D01*
X137774761Y-120078571D01*
X137822380Y-120173809D01*
X137822380Y-120411904D01*
X137774761Y-120507142D01*
X137727142Y-120554761D01*
%TO.C,R14*%
X169537142Y-68862380D02*
X169203809Y-68386190D01*
X168965714Y-68862380D02*
X168965714Y-67862380D01*
X169346666Y-67862380D01*
X169441904Y-67910000D01*
X169489523Y-67957619D01*
X169537142Y-68052857D01*
X169537142Y-68195714D01*
X169489523Y-68290952D01*
X169441904Y-68338571D01*
X169346666Y-68386190D01*
X168965714Y-68386190D01*
X170489523Y-68862380D02*
X169918095Y-68862380D01*
X170203809Y-68862380D02*
X170203809Y-67862380D01*
X170108571Y-68005238D01*
X170013333Y-68100476D01*
X169918095Y-68148095D01*
X171346666Y-68195714D02*
X171346666Y-68862380D01*
X171108571Y-67814761D02*
X170870476Y-68529047D01*
X171489523Y-68529047D01*
%TO.C,Q1*%
D13*
X173639238Y-75740380D02*
X173542476Y-75692000D01*
X173445714Y-75595238D01*
X173300571Y-75450095D01*
X173203809Y-75401714D01*
X173107047Y-75401714D01*
X173155428Y-75643619D02*
X173058666Y-75595238D01*
X172961904Y-75498476D01*
X172913523Y-75304952D01*
X172913523Y-74966285D01*
X172961904Y-74772761D01*
X173058666Y-74676000D01*
X173155428Y-74627619D01*
X173348952Y-74627619D01*
X173445714Y-74676000D01*
X173542476Y-74772761D01*
X173590857Y-74966285D01*
X173590857Y-75304952D01*
X173542476Y-75498476D01*
X173445714Y-75595238D01*
X173348952Y-75643619D01*
X173155428Y-75643619D01*
X174558476Y-75643619D02*
X173977904Y-75643619D01*
X174268190Y-75643619D02*
X174268190Y-74627619D01*
X174171428Y-74772761D01*
X174074666Y-74869523D01*
X173977904Y-74917904D01*
%TO.C,J4*%
D11*
X120106666Y-65492380D02*
X120106666Y-66206666D01*
X120059047Y-66349523D01*
X119963809Y-66444761D01*
X119820952Y-66492380D01*
X119725714Y-66492380D01*
X121011428Y-65825714D02*
X121011428Y-66492380D01*
X120773333Y-65444761D02*
X120535238Y-66159047D01*
X121154285Y-66159047D01*
%TO.C,J2*%
X163706666Y-59142380D02*
X163706666Y-59856666D01*
X163659047Y-59999523D01*
X163563809Y-60094761D01*
X163420952Y-60142380D01*
X163325714Y-60142380D01*
X164135238Y-59237619D02*
X164182857Y-59190000D01*
X164278095Y-59142380D01*
X164516190Y-59142380D01*
X164611428Y-59190000D01*
X164659047Y-59237619D01*
X164706666Y-59332857D01*
X164706666Y-59428095D01*
X164659047Y-59570952D01*
X164087619Y-60142380D01*
X164706666Y-60142380D01*
%TO.C,J1*%
X177466666Y-73322380D02*
X177466666Y-74036666D01*
X177419047Y-74179523D01*
X177323809Y-74274761D01*
X177180952Y-74322380D01*
X177085714Y-74322380D01*
X178466666Y-74322380D02*
X177895238Y-74322380D01*
X178180952Y-74322380D02*
X178180952Y-73322380D01*
X178085714Y-73465238D01*
X177990476Y-73560476D01*
X177895238Y-73608095D01*
%TO.C,JP1*%
X162996666Y-74912380D02*
X162996666Y-75626666D01*
X162949047Y-75769523D01*
X162853809Y-75864761D01*
X162710952Y-75912380D01*
X162615714Y-75912380D01*
X163472857Y-75912380D02*
X163472857Y-74912380D01*
X163853809Y-74912380D01*
X163949047Y-74960000D01*
X163996666Y-75007619D01*
X164044285Y-75102857D01*
X164044285Y-75245714D01*
X163996666Y-75340952D01*
X163949047Y-75388571D01*
X163853809Y-75436190D01*
X163472857Y-75436190D01*
X164996666Y-75912380D02*
X164425238Y-75912380D01*
X164710952Y-75912380D02*
X164710952Y-74912380D01*
X164615714Y-75055238D01*
X164520476Y-75150476D01*
X164425238Y-75198095D01*
%TO.C,R13*%
X163187142Y-102052380D02*
X162853809Y-101576190D01*
X162615714Y-102052380D02*
X162615714Y-101052380D01*
X162996666Y-101052380D01*
X163091904Y-101100000D01*
X163139523Y-101147619D01*
X163187142Y-101242857D01*
X163187142Y-101385714D01*
X163139523Y-101480952D01*
X163091904Y-101528571D01*
X162996666Y-101576190D01*
X162615714Y-101576190D01*
X164139523Y-102052380D02*
X163568095Y-102052380D01*
X163853809Y-102052380D02*
X163853809Y-101052380D01*
X163758571Y-101195238D01*
X163663333Y-101290476D01*
X163568095Y-101338095D01*
X164472857Y-101052380D02*
X165091904Y-101052380D01*
X164758571Y-101433333D01*
X164901428Y-101433333D01*
X164996666Y-101480952D01*
X165044285Y-101528571D01*
X165091904Y-101623809D01*
X165091904Y-101861904D01*
X165044285Y-101957142D01*
X164996666Y-102004761D01*
X164901428Y-102052380D01*
X164615714Y-102052380D01*
X164520476Y-102004761D01*
X164472857Y-101957142D01*
%TO.C,R12*%
X163187142Y-99512380D02*
X162853809Y-99036190D01*
X162615714Y-99512380D02*
X162615714Y-98512380D01*
X162996666Y-98512380D01*
X163091904Y-98560000D01*
X163139523Y-98607619D01*
X163187142Y-98702857D01*
X163187142Y-98845714D01*
X163139523Y-98940952D01*
X163091904Y-98988571D01*
X162996666Y-99036190D01*
X162615714Y-99036190D01*
X164139523Y-99512380D02*
X163568095Y-99512380D01*
X163853809Y-99512380D02*
X163853809Y-98512380D01*
X163758571Y-98655238D01*
X163663333Y-98750476D01*
X163568095Y-98798095D01*
X164520476Y-98607619D02*
X164568095Y-98560000D01*
X164663333Y-98512380D01*
X164901428Y-98512380D01*
X164996666Y-98560000D01*
X165044285Y-98607619D01*
X165091904Y-98702857D01*
X165091904Y-98798095D01*
X165044285Y-98940952D01*
X164472857Y-99512380D01*
X165091904Y-99512380D01*
%TO.C,R11*%
X163187142Y-96972380D02*
X162853809Y-96496190D01*
X162615714Y-96972380D02*
X162615714Y-95972380D01*
X162996666Y-95972380D01*
X163091904Y-96020000D01*
X163139523Y-96067619D01*
X163187142Y-96162857D01*
X163187142Y-96305714D01*
X163139523Y-96400952D01*
X163091904Y-96448571D01*
X162996666Y-96496190D01*
X162615714Y-96496190D01*
X164139523Y-96972380D02*
X163568095Y-96972380D01*
X163853809Y-96972380D02*
X163853809Y-95972380D01*
X163758571Y-96115238D01*
X163663333Y-96210476D01*
X163568095Y-96258095D01*
X165091904Y-96972380D02*
X164520476Y-96972380D01*
X164806190Y-96972380D02*
X164806190Y-95972380D01*
X164710952Y-96115238D01*
X164615714Y-96210476D01*
X164520476Y-96258095D01*
%TO.C,R10*%
X163187142Y-94432380D02*
X162853809Y-93956190D01*
X162615714Y-94432380D02*
X162615714Y-93432380D01*
X162996666Y-93432380D01*
X163091904Y-93480000D01*
X163139523Y-93527619D01*
X163187142Y-93622857D01*
X163187142Y-93765714D01*
X163139523Y-93860952D01*
X163091904Y-93908571D01*
X162996666Y-93956190D01*
X162615714Y-93956190D01*
X164139523Y-94432380D02*
X163568095Y-94432380D01*
X163853809Y-94432380D02*
X163853809Y-93432380D01*
X163758571Y-93575238D01*
X163663333Y-93670476D01*
X163568095Y-93718095D01*
X164758571Y-93432380D02*
X164853809Y-93432380D01*
X164949047Y-93480000D01*
X164996666Y-93527619D01*
X165044285Y-93622857D01*
X165091904Y-93813333D01*
X165091904Y-94051428D01*
X165044285Y-94241904D01*
X164996666Y-94337142D01*
X164949047Y-94384761D01*
X164853809Y-94432380D01*
X164758571Y-94432380D01*
X164663333Y-94384761D01*
X164615714Y-94337142D01*
X164568095Y-94241904D01*
X164520476Y-94051428D01*
X164520476Y-93813333D01*
X164568095Y-93622857D01*
X164615714Y-93527619D01*
X164663333Y-93480000D01*
X164758571Y-93432380D01*
%TO.C,R9*%
X163663333Y-91892380D02*
X163330000Y-91416190D01*
X163091904Y-91892380D02*
X163091904Y-90892380D01*
X163472857Y-90892380D01*
X163568095Y-90940000D01*
X163615714Y-90987619D01*
X163663333Y-91082857D01*
X163663333Y-91225714D01*
X163615714Y-91320952D01*
X163568095Y-91368571D01*
X163472857Y-91416190D01*
X163091904Y-91416190D01*
X164139523Y-91892380D02*
X164330000Y-91892380D01*
X164425238Y-91844761D01*
X164472857Y-91797142D01*
X164568095Y-91654285D01*
X164615714Y-91463809D01*
X164615714Y-91082857D01*
X164568095Y-90987619D01*
X164520476Y-90940000D01*
X164425238Y-90892380D01*
X164234761Y-90892380D01*
X164139523Y-90940000D01*
X164091904Y-90987619D01*
X164044285Y-91082857D01*
X164044285Y-91320952D01*
X164091904Y-91416190D01*
X164139523Y-91463809D01*
X164234761Y-91511428D01*
X164425238Y-91511428D01*
X164520476Y-91463809D01*
X164568095Y-91416190D01*
X164615714Y-91320952D01*
%TO.C,R8*%
X163663333Y-89352380D02*
X163330000Y-88876190D01*
X163091904Y-89352380D02*
X163091904Y-88352380D01*
X163472857Y-88352380D01*
X163568095Y-88400000D01*
X163615714Y-88447619D01*
X163663333Y-88542857D01*
X163663333Y-88685714D01*
X163615714Y-88780952D01*
X163568095Y-88828571D01*
X163472857Y-88876190D01*
X163091904Y-88876190D01*
X164234761Y-88780952D02*
X164139523Y-88733333D01*
X164091904Y-88685714D01*
X164044285Y-88590476D01*
X164044285Y-88542857D01*
X164091904Y-88447619D01*
X164139523Y-88400000D01*
X164234761Y-88352380D01*
X164425238Y-88352380D01*
X164520476Y-88400000D01*
X164568095Y-88447619D01*
X164615714Y-88542857D01*
X164615714Y-88590476D01*
X164568095Y-88685714D01*
X164520476Y-88733333D01*
X164425238Y-88780952D01*
X164234761Y-88780952D01*
X164139523Y-88828571D01*
X164091904Y-88876190D01*
X164044285Y-88971428D01*
X164044285Y-89161904D01*
X164091904Y-89257142D01*
X164139523Y-89304761D01*
X164234761Y-89352380D01*
X164425238Y-89352380D01*
X164520476Y-89304761D01*
X164568095Y-89257142D01*
X164615714Y-89161904D01*
X164615714Y-88971428D01*
X164568095Y-88876190D01*
X164520476Y-88828571D01*
X164425238Y-88780952D01*
%TO.C,R7*%
X163663333Y-86812380D02*
X163330000Y-86336190D01*
X163091904Y-86812380D02*
X163091904Y-85812380D01*
X163472857Y-85812380D01*
X163568095Y-85860000D01*
X163615714Y-85907619D01*
X163663333Y-86002857D01*
X163663333Y-86145714D01*
X163615714Y-86240952D01*
X163568095Y-86288571D01*
X163472857Y-86336190D01*
X163091904Y-86336190D01*
X163996666Y-85812380D02*
X164663333Y-85812380D01*
X164234761Y-86812380D01*
%TO.C,R6*%
X163663333Y-84272380D02*
X163330000Y-83796190D01*
X163091904Y-84272380D02*
X163091904Y-83272380D01*
X163472857Y-83272380D01*
X163568095Y-83320000D01*
X163615714Y-83367619D01*
X163663333Y-83462857D01*
X163663333Y-83605714D01*
X163615714Y-83700952D01*
X163568095Y-83748571D01*
X163472857Y-83796190D01*
X163091904Y-83796190D01*
X164520476Y-83272380D02*
X164330000Y-83272380D01*
X164234761Y-83320000D01*
X164187142Y-83367619D01*
X164091904Y-83510476D01*
X164044285Y-83700952D01*
X164044285Y-84081904D01*
X164091904Y-84177142D01*
X164139523Y-84224761D01*
X164234761Y-84272380D01*
X164425238Y-84272380D01*
X164520476Y-84224761D01*
X164568095Y-84177142D01*
X164615714Y-84081904D01*
X164615714Y-83843809D01*
X164568095Y-83748571D01*
X164520476Y-83700952D01*
X164425238Y-83653333D01*
X164234761Y-83653333D01*
X164139523Y-83700952D01*
X164091904Y-83748571D01*
X164044285Y-83843809D01*
%TO.C,R5*%
X163663333Y-81732380D02*
X163330000Y-81256190D01*
X163091904Y-81732380D02*
X163091904Y-80732380D01*
X163472857Y-80732380D01*
X163568095Y-80780000D01*
X163615714Y-80827619D01*
X163663333Y-80922857D01*
X163663333Y-81065714D01*
X163615714Y-81160952D01*
X163568095Y-81208571D01*
X163472857Y-81256190D01*
X163091904Y-81256190D01*
X164568095Y-80732380D02*
X164091904Y-80732380D01*
X164044285Y-81208571D01*
X164091904Y-81160952D01*
X164187142Y-81113333D01*
X164425238Y-81113333D01*
X164520476Y-81160952D01*
X164568095Y-81208571D01*
X164615714Y-81303809D01*
X164615714Y-81541904D01*
X164568095Y-81637142D01*
X164520476Y-81684761D01*
X164425238Y-81732380D01*
X164187142Y-81732380D01*
X164091904Y-81684761D01*
X164044285Y-81637142D01*
%TO.C,R4*%
X163663333Y-79192380D02*
X163330000Y-78716190D01*
X163091904Y-79192380D02*
X163091904Y-78192380D01*
X163472857Y-78192380D01*
X163568095Y-78240000D01*
X163615714Y-78287619D01*
X163663333Y-78382857D01*
X163663333Y-78525714D01*
X163615714Y-78620952D01*
X163568095Y-78668571D01*
X163472857Y-78716190D01*
X163091904Y-78716190D01*
X164520476Y-78525714D02*
X164520476Y-79192380D01*
X164282380Y-78144761D02*
X164044285Y-78859047D01*
X164663333Y-78859047D01*
%TO.C,SW3*%
X122856666Y-108774761D02*
X122999523Y-108822380D01*
X123237619Y-108822380D01*
X123332857Y-108774761D01*
X123380476Y-108727142D01*
X123428095Y-108631904D01*
X123428095Y-108536666D01*
X123380476Y-108441428D01*
X123332857Y-108393809D01*
X123237619Y-108346190D01*
X123047142Y-108298571D01*
X122951904Y-108250952D01*
X122904285Y-108203333D01*
X122856666Y-108108095D01*
X122856666Y-108012857D01*
X122904285Y-107917619D01*
X122951904Y-107870000D01*
X123047142Y-107822380D01*
X123285238Y-107822380D01*
X123428095Y-107870000D01*
X123761428Y-107822380D02*
X123999523Y-108822380D01*
X124190000Y-108108095D01*
X124380476Y-108822380D01*
X124618571Y-107822380D01*
X124904285Y-107822380D02*
X125523333Y-107822380D01*
X125190000Y-108203333D01*
X125332857Y-108203333D01*
X125428095Y-108250952D01*
X125475714Y-108298571D01*
X125523333Y-108393809D01*
X125523333Y-108631904D01*
X125475714Y-108727142D01*
X125428095Y-108774761D01*
X125332857Y-108822380D01*
X125047142Y-108822380D01*
X124951904Y-108774761D01*
X124904285Y-108727142D01*
%TO.C,SW1*%
X84756666Y-108774761D02*
X84899523Y-108822380D01*
X85137619Y-108822380D01*
X85232857Y-108774761D01*
X85280476Y-108727142D01*
X85328095Y-108631904D01*
X85328095Y-108536666D01*
X85280476Y-108441428D01*
X85232857Y-108393809D01*
X85137619Y-108346190D01*
X84947142Y-108298571D01*
X84851904Y-108250952D01*
X84804285Y-108203333D01*
X84756666Y-108108095D01*
X84756666Y-108012857D01*
X84804285Y-107917619D01*
X84851904Y-107870000D01*
X84947142Y-107822380D01*
X85185238Y-107822380D01*
X85328095Y-107870000D01*
X85661428Y-107822380D02*
X85899523Y-108822380D01*
X86090000Y-108108095D01*
X86280476Y-108822380D01*
X86518571Y-107822380D01*
X87423333Y-108822380D02*
X86851904Y-108822380D01*
X87137619Y-108822380D02*
X87137619Y-107822380D01*
X87042380Y-107965238D01*
X86947142Y-108060476D01*
X86851904Y-108108095D01*
%TO.C,R3*%
X124293333Y-102222380D02*
X123960000Y-101746190D01*
X123721904Y-102222380D02*
X123721904Y-101222380D01*
X124102857Y-101222380D01*
X124198095Y-101270000D01*
X124245714Y-101317619D01*
X124293333Y-101412857D01*
X124293333Y-101555714D01*
X124245714Y-101650952D01*
X124198095Y-101698571D01*
X124102857Y-101746190D01*
X123721904Y-101746190D01*
X124626666Y-101222380D02*
X125245714Y-101222380D01*
X124912380Y-101603333D01*
X125055238Y-101603333D01*
X125150476Y-101650952D01*
X125198095Y-101698571D01*
X125245714Y-101793809D01*
X125245714Y-102031904D01*
X125198095Y-102127142D01*
X125150476Y-102174761D01*
X125055238Y-102222380D01*
X124769523Y-102222380D01*
X124674285Y-102174761D01*
X124626666Y-102127142D01*
%TO.C,R2*%
X105243333Y-102222380D02*
X104910000Y-101746190D01*
X104671904Y-102222380D02*
X104671904Y-101222380D01*
X105052857Y-101222380D01*
X105148095Y-101270000D01*
X105195714Y-101317619D01*
X105243333Y-101412857D01*
X105243333Y-101555714D01*
X105195714Y-101650952D01*
X105148095Y-101698571D01*
X105052857Y-101746190D01*
X104671904Y-101746190D01*
X105624285Y-101317619D02*
X105671904Y-101270000D01*
X105767142Y-101222380D01*
X106005238Y-101222380D01*
X106100476Y-101270000D01*
X106148095Y-101317619D01*
X106195714Y-101412857D01*
X106195714Y-101508095D01*
X106148095Y-101650952D01*
X105576666Y-102222380D01*
X106195714Y-102222380D01*
%TO.C,R1*%
X86193333Y-102222380D02*
X85860000Y-101746190D01*
X85621904Y-102222380D02*
X85621904Y-101222380D01*
X86002857Y-101222380D01*
X86098095Y-101270000D01*
X86145714Y-101317619D01*
X86193333Y-101412857D01*
X86193333Y-101555714D01*
X86145714Y-101650952D01*
X86098095Y-101698571D01*
X86002857Y-101746190D01*
X85621904Y-101746190D01*
X87145714Y-102222380D02*
X86574285Y-102222380D01*
X86860000Y-102222380D02*
X86860000Y-101222380D01*
X86764761Y-101365238D01*
X86669523Y-101460476D01*
X86574285Y-101508095D01*
%TO.C,J3*%
X120106666Y-69302380D02*
X120106666Y-70016666D01*
X120059047Y-70159523D01*
X119963809Y-70254761D01*
X119820952Y-70302380D01*
X119725714Y-70302380D01*
X120487619Y-69302380D02*
X121106666Y-69302380D01*
X120773333Y-69683333D01*
X120916190Y-69683333D01*
X121011428Y-69730952D01*
X121059047Y-69778571D01*
X121106666Y-69873809D01*
X121106666Y-70111904D01*
X121059047Y-70207142D01*
X121011428Y-70254761D01*
X120916190Y-70302380D01*
X120630476Y-70302380D01*
X120535238Y-70254761D01*
X120487619Y-70207142D01*
%TO.C,A1*%
X93265714Y-97956666D02*
X93741904Y-97956666D01*
X93170476Y-98242380D02*
X93503809Y-97242380D01*
X93837142Y-98242380D01*
X94694285Y-98242380D02*
X94122857Y-98242380D01*
X94408571Y-98242380D02*
X94408571Y-97242380D01*
X94313333Y-97385238D01*
X94218095Y-97480476D01*
X94122857Y-97528095D01*
%TD*%
M02*
